<mxfile host="app.diagrams.net" modified="2021-03-19T12:35:20.348Z" agent="5.0 (Windows NT 10.0; Win64; x64) AppleWebKit/537.36 (KHTML, like Gecko) Chrome/89.0.4389.90 Safari/537.36" etag="OVYvdR94fA8X_oN4tiVa" version="14.2.9" type="github">
  <diagram id="jAKVa33N1ZqDmZPJXIvc" name="Page-1">
    <mxGraphModel dx="1038" dy="580" grid="1" gridSize="10" guides="1" tooltips="1" connect="1" arrows="1" fold="1" page="1" pageScale="1" pageWidth="827" pageHeight="1169" math="0" shadow="0">
      <root>
        <mxCell id="0" />
        <mxCell id="1" parent="0" />
        <mxCell id="egsPrMgl1LdYm7Axs7Or-79" value="" style="rounded=1;whiteSpace=wrap;html=1;absoluteArcSize=1;arcSize=14;strokeWidth=2;" vertex="1" parent="1">
          <mxGeometry x="540" y="30" width="195" height="190" as="geometry" />
        </mxCell>
        <mxCell id="egsPrMgl1LdYm7Axs7Or-80" value="" style="rounded=1;whiteSpace=wrap;html=1;absoluteArcSize=1;arcSize=14;strokeWidth=2;" vertex="1" parent="1">
          <mxGeometry x="70" y="40" width="180" height="150" as="geometry" />
        </mxCell>
        <mxCell id="egsPrMgl1LdYm7Axs7Or-96" style="edgeStyle=orthogonalEdgeStyle;rounded=0;orthogonalLoop=1;jettySize=auto;html=1;exitX=0;exitY=0.25;exitDx=0;exitDy=0;entryX=1.015;entryY=0.174;entryDx=0;entryDy=0;entryPerimeter=0;" edge="1" parent="1" source="egsPrMgl1LdYm7Axs7Or-81" target="egsPrMgl1LdYm7Axs7Or-84">
          <mxGeometry relative="1" as="geometry">
            <Array as="points">
              <mxPoint x="329" y="320" />
              <mxPoint x="295" y="320" />
              <mxPoint x="295" y="425" />
            </Array>
          </mxGeometry>
        </mxCell>
        <mxCell id="egsPrMgl1LdYm7Axs7Or-100" style="edgeStyle=orthogonalEdgeStyle;rounded=0;orthogonalLoop=1;jettySize=auto;html=1;exitX=0;exitY=0.25;exitDx=0;exitDy=0;entryX=1;entryY=0.5;entryDx=0;entryDy=0;" edge="1" parent="1" source="egsPrMgl1LdYm7Axs7Or-81" target="egsPrMgl1LdYm7Axs7Or-82">
          <mxGeometry relative="1" as="geometry">
            <Array as="points">
              <mxPoint x="329" y="300" />
              <mxPoint x="250" y="300" />
              <mxPoint x="250" y="311" />
            </Array>
          </mxGeometry>
        </mxCell>
        <mxCell id="egsPrMgl1LdYm7Axs7Or-81" value="" style="rounded=1;whiteSpace=wrap;html=1;absoluteArcSize=1;arcSize=14;strokeWidth=2;" vertex="1" parent="1">
          <mxGeometry x="329" y="250" width="170" height="190" as="geometry" />
        </mxCell>
        <mxCell id="egsPrMgl1LdYm7Axs7Or-82" value="" style="rounded=1;whiteSpace=wrap;html=1;absoluteArcSize=1;arcSize=14;strokeWidth=2;" vertex="1" parent="1">
          <mxGeometry x="30" y="270" width="140" height="82.44" as="geometry" />
        </mxCell>
        <mxCell id="egsPrMgl1LdYm7Axs7Or-102" style="edgeStyle=orthogonalEdgeStyle;rounded=0;orthogonalLoop=1;jettySize=auto;html=1;exitX=1;exitY=0.75;exitDx=0;exitDy=0;entryX=1.003;entryY=0.169;entryDx=0;entryDy=0;entryPerimeter=0;" edge="1" parent="1" source="egsPrMgl1LdYm7Axs7Or-83" target="egsPrMgl1LdYm7Axs7Or-79">
          <mxGeometry relative="1" as="geometry" />
        </mxCell>
        <mxCell id="egsPrMgl1LdYm7Axs7Or-83" value="" style="rounded=1;whiteSpace=wrap;html=1;absoluteArcSize=1;arcSize=14;strokeWidth=2;" vertex="1" parent="1">
          <mxGeometry x="560" y="286.44" width="200" height="80" as="geometry" />
        </mxCell>
        <mxCell id="egsPrMgl1LdYm7Axs7Or-84" value="" style="rounded=1;whiteSpace=wrap;html=1;absoluteArcSize=1;arcSize=14;strokeWidth=2;" vertex="1" parent="1">
          <mxGeometry x="70" y="388.78" width="190" height="210" as="geometry" />
        </mxCell>
        <mxCell id="egsPrMgl1LdYm7Axs7Or-86" value="" style="shape=image;verticalLabelPosition=bottom;labelBackgroundColor=#ffffff;verticalAlign=top;aspect=fixed;imageAspect=0;image=data:image/png,iVBORw0KGgoAAAANSUhEUgAAANsAAADTCAYAAAAI0GYtAAAgAElEQVR4Ae1dva7sNg6e55r6Psukv08RIM15iBR5gtNsm9QLLFIEOF26ANtu7YVEUvyV7JnRzPV4uEDWGpuiqM/8RNrH4j0t+b9EIBF4CgKnp4ySgyQCicCSZEsnSASehEBAtq/l6/OynM+n5XTC/87n5fL59SSTcphE4JgIGLJ9LR+SZES2ejwvHxP59nlBIl8+j4lszioRMAgosn19nFs0O398LsStr6/P5XJOshns8mcicBUCgmyfy4Ui2TDacPRTYp8XIOr5g0n6+SHSUUpFuX9LU8u4QplLY0/n5SLIvyyk47J81oWAU97zpSwSX8vnRSwcF7aJ0Pn6uCxnmu/ptEA/uopYnD+Wz5JSV7nLUmLwVzgn6pfHRKCPAJPt66M5n/D7oCc5+mlRcpZsQh+Tqjgs9+fzTDYZXdV1RciODkGeft9laSmslW8LhVh4mkwhNmPE+oGEAVB5KhFQCARkW0sX2dGHZGvkQ2f8+lw+zuyYzeG1khZdz+IBkQlItrENp6Kz5rviXImE+EKn9SUiNcKQrhqucFw6J8hWIyVitjInhWz+SAQMAgHZTMQyHTiFM3LNESllEw5b0rRGClAYko10nJiUKN1ICNxkYkmuNmLJk1Zn+82pJ0cpmhPZTuQjEOg89LVzIqk8JgIRAky2RTiSdFbXK3b0hZyYIkjt97V8qmcjdt7XJFuZVH9ODqo8kQgIBATZ9LPM5aO8ZsD/qbeRTLbyUgMyuJIiYqQgspUXC3RdPKdRehiSraV4p4XkigUtYrWIxzbIdaHJyZO0CFDfNgYTn6bJR1p4jMzKnLh/thIBj4Ai2yKjW3sxQOkWO15zaidzWk6CbDI9ozbxwOnAC42EgW4m4B1kW/SiQnbBkdLXPtm0PGBDc/Lw5plEgBEwZCsX4LW5fC1+cl+Q6Ffr8JICHZTIZl6/Rzo+5Ov59kLEpmmFwPzCA0y/j2zhHCu5V8i2OicGNluJgEUgIJsVyd+JQCIwA4Ek2wwUU0cisAGBJNsGkFIkEZiBQJJtBoqpIxHYgECSbQNIKZIIzEDgFL3KznP05448pi9M9IEZjE0diUAisI5AppHrGKVEIjAFgSTbFBhTSSKwjkCSbR2jlEgEpiCQZJsCYypJBNYRSLKtY5QSicAUBJJsU2BMJYnAOgJJtjWM6n443l5UxN32INwOxFuABkr/89fy7fu/l9/+ETL13O/Lt+9/LX+I09D87/Lz99+Xn/71v2VZ/rf89kuRG/z3639rt7//9e9Y7pe/l7/tGP/8vfzkdGpbtuiLZcxc7djdLU9nsR8SOrXtV2pPE22H0nsgg2F++Knnki1w3B+OwJoBgc1ANtqOgwpoU2rbYtRRHJBNOSmShXtLsvHZ2gp0kQTo1ISha/L4x69A3J//I88uS+0viLlFXyQD535frH45WiNRsIex7Y+UpGxk461WUk7q3lM7ybZ2N7aSrehBwg0jXEAQctLfajSykeBxZINx7XgxIGSjj7wsH8uA/d/cIsL9GtkaiQqUWBrxRHVhxKZflOMMwyx8rHpXLUc2ngB8psKOg6uIAKTMpAIlV3Na4XGVIvEGqFi9WDc7qvw8iPoSYlVHKbUgism2Fa2SAj+tkfZw51aAto5hZEh3s5OuX0M2woNKMNDY8jgg2x+UJoqIsiyPIhumpAMSSLNjIkkJjIYuFR7Yj90b5uqGc3pIp5Vcu986xdcW7euXIhs4sTS+EIx+byEbAMQkKn3EqhM4boUDgSNQ5TnW5Vc2VcahdbY20DOWsINqohChGkm4fmW7TYHNgJPU16RxISDM+HxrDcm2LEu9LtOugbMGumicVXLgcxo8C1Kv/nFV3xKTDdLUcfRUJKomlN36VGSXsWS5i6m21rd7T1cE2YBM0rm1obeQTWuAClwMHlyN9ZZrAC47df0tCNJkhueAfI2LZJIhkR2LxCKbR2SL5Juu0ggIYh0ZHJSet+4hm32RIpweySafpcAO0UdEWHetvlAR+hrZRP8isyFyNhKJrKdlOOLGRXLisoJ5jz+YbJj+9Y2PSWEJwCmeJVVlz3I62fMdMhS0IkIMiQUQK5tMWttuYr2xbEvtE03e2FBGGJENrrFed9M3kG1RUeceshFhnRWLHsNfr4R3ZBvoa2RjGSKoJLQfiRZV83W9qzsj5C6foqo1L8aR7j2dm042mhyvQgKMwHHppULk50A27q9IhAOtnltdREDRLLLBvNlmwqMdt5CtOW6JHA8iGz4L9iLPDLKVOVs9DQfRAMyCFF7IlKaWg0W6Lp6h85jOO/jJZMMydv00EidrJlYBMNGmzcs6ekQ2Kp9n9DZwhe5orPVz/hmu2ScaVU9gg42upUs3suF8RxhuSSPBLCDZt1//En9nEwaXZkBckrCpKZ2XR5DRqSBdtyTZro8jW9VVbZTPoDQCHyv2JdOI8GcxQzbKfCAirnQVWn5cU5CNnEimQCV15N82RWogESEKmeSsLbks+XDeoJdf8dbTta8+t04sUGjlrN1NP9lNq6a0HW3bTDacW3s7Sv3tMSBI15HRUcsfscMXGYEuGq6rkwTqkf9IrlM9PH9nGglDeV3KBML+FrLJvqM3wHbAH/Rbka3YQI5PzzZ6lcbnNnyQLdeqvHVavF50WP9tBLXXkFw0rn+2w8gqxir2WmL1ztl5WVJUPdZYUOaeM50unG/UvahQ/wsIMiJGjTDfO5Eh0EVjgU7zsqK8sBAEIll6A6q+TDFyW/T15gHn4whabGg+sQJgLPc66aQjW7sB2UgEEoGpCCTZpsKZyhKBPgJJtj42eSURmIpAkm0qnKksEegjkGTrY5NXEoGpCJz+/PPPJf9LDNIHHu8DGdmmrl2pLBHoI5Bk62OTVxKBqQgk2abCmcoSgT4CSbY+NnklEZiKQJJtKpypLBHoI5Bk62OTVxKBqQh4stHX6+XjWvPR79SRU9nOEIAtPfrr/3tNhC/+wx0L96p+wf6GbPFu7Febl92Lpe3HLR9uuz6e73xhH3/13v+SnXZCyy/ppdP1vpAfFvihgkCzbBTAVHvUl/64n07Uk/RE3CBTdyaYPW5i3HdqGrJt22i5e4DqDe5sSwlqb9T5oFP8XOooOiLGxWyIgNYJ420xepW/iWwTbdT3UNtWrpU5yHnBnOTiAn28jO5Hi4eU02O/z69jkm2w5b/n5NWZCsk6K3Hcj3ZTQxXi6jYjogu/ivUVAdApoyB1m2YjKaRjXYAkkeiCOKq6KOK8bHZkmt1S9g3bTDa3eZPLOdPGSrVpMniea5v7aPOo2Qw41CPHD3TDjmlRFCaSETcQVmKbvmCq6CIXODisvrGzx+SwsqhfpWPCKNGM9RUBq5M6zbKR9PGxbwvLUFo8jFAdsm3SL4Y6apPJVmcYp5GNRI08Xq7IqF3dQQmEnh5dtMXrBpLLIjr4bDkiXBRh0Bmcw5hoVolqCBM5DBBaRgQgRJSGWgeK9IFMh2zTbLSWbCnKs3ERiTAvw9XzEidvwzuc2U62RjSApRJn5OxUCFX0i/qsnwPyCTVkgCtXoG+Yj2LVwQ2J2j9WIaNd4BxADlNmQPapg3eIog2rv0J94mWETiP9XCIHDnU6G60xge4qguebTTZLsHpwoXH4Lq1snlvkrIqD/55INl2fpNUSESxZJxagreTknyIoPW1HLkYU3SdwPnIScB7txD1H8KTRuuiFSfwyYHpkCyPyrTZapHpk03JEZIcfivkoL/qH9ovrb9KcRLYorfN/RlAkQoBXzwXp6OZ7I29ybftUhpxIvqLnNhGVyMW/iw0+3UTHjVZ3Y7QlL1/ukchE1SDiRDq9jTwStLbajHKulj/iYP8ZLDmMvA/y/Ju155AtJMQksm2oZ9m/Z7xqx07H150O8/wROTJVpZLpEZFXnnO6WxFWTV6Qs2Sbb6O1J8bGSqEdZiGpfTt/92sagrS8XXujxhyyBYVWa8Qq6d69aWQrr2dSxvL2cvjMCHeRnL9EK5cCGULp+w5OTylhSDb6I7NyQHTKwAGLY5INsb5igSHbQ2zUM/W2FBvMQoB2kP1FA2F7+8Ki7Tj6r0lkq4xYzu1ZCkhWCTeBbOUmqD87lHE2EA1uHpLGOg+lgcF5uumwaoPTeYcEKTi/LT31jmocuqrUZJM2kF3yKK9fa2PTE0QeIhKn1J3n05bOyjRX41FtVAtSG/mtGoZsbzX3nGxDQBO8nZ7SeKTuKQY+TUmS7WlQ73ugGskeEX1q1Iwi+L7xeIR1SbZHoPqSOiECrT1/XTc1eH6V6fN1/Y8lnWQ71v3M2ewYgSTbjm9OmnYsBLJuZNbNzLqhT/KBjGzHWjxzNjtGIMm245uTph0LgSTbse5nzmbHCCTZdnxz0rRjIZBkO9b9zNnsGIEk245vTpp2LAQU2aK9Zceabs7GI5BfjnhMHnPmUGQbf13e2xfW3xJTII++fv+2YaOk/Fpefq7U+zLfba1R93uyjUK3/yYSyCft959wbZDJbyIFytA8FNmizZxtxr3dwugUWS8SkCoLliQXbOGRW2aA+F5G96PFQ8q1e/GmjWORLetFCjfG6DMq+NMpFSGUtGI9Mjqr6+UHLmRWphJ1NL5TdOwTQ7LR5k+1cTPYtNl2ZdPmUbFhtMA31JP1ItHDgBzWYXWEiGXi1DSWle4c95MSTKRhhOqQbZN+M9yRf66TTZU28DUdC5GyXuSGKIJe1HfADjnMs0/0XBrp9Omfd+NIl5bCZ8W1fW7VRptGZr1IjeWyrJMtilJBdGPFcwv9mOFLmMx6keYFDZBNliWI/70CvkelhURyaR6/jIGXJGsbP3GhiQjZe07WhrzNrwlkQ3JRCklHwZKaRhqCrp7LepHtWUincD4C2shG5NP9rE/3yKblSJdPb0FuGEGTbArMO8mGRFNEmhTZwvJ4yvb+D3mTa1u+TYNu5ETyFTe3eTW3jlx6+/RrY7rV/pTA+nkSPRKZiNUK7LCObTbySNDaajNFOh6PNA2JVoTkfaBOb3y8j2whISaRLetFLr/90kkHzTNSRLbhn0HQ4f2iETEhJiUQLXhOkyqqnX6hkyLv1L6PbFkvcvm7eQtFAO+AxTEpDQuJUXWYyGYI1YYRstfXtNRavC3FBhPB0A6yv2iAfn6eWjvJGX1W6I1+30m2rBf52z/aW8gROSVlohVJ7+DUX5MNIkffUeX1nk44P4gsQeSJ7NfPfmCnnB+39VjVxujFCU35zY6KbG8295yurb48FRG9eExV/aLKkmwveuNmmV0j2SOiT42a/cg8y/5X0pNke6W79RBbIQLpVPHegeD5VT7n3avxCP2TbEe4izmHl0AgyfYStymNPAICWTfySTUD/8xx3r4+ZUa2IyyZOYeXQCDJ9hK3KY08AgJJtiPcxZzDSyCQZHuJ25RGHgGBJNsR7mLO4SUQSLK9xG1KI4+AwBSyRRtBLThbZGyf/L03BPJrk3vuyNuSbfxFOm6XGZQMiD5vir6YzxqTfpeAw+5NvqN8W7INN1f2dhijU2SNSVjfy4IliQPbfuQ2G1i0vIzupyuI3RM79t33fcmWNSaFZ2L0cZFciHTKSwiJVgZh+AEyLmRWphJ1NL4a6DV/OLLVZysq2qPK2PEElczlE+pCqjokWCuS9AQyVQedL3Kyv6wlaa8VM0wxIFFbaHyNp1BbsBLbbSC9FFI+r0DbOgykkVaflUX9G7a1xPqK6VYnTWyWjaSPj31bWGZTzZEO2TbpF0O9YlORrRBgWw3Iy/KJs20FXAVZgIxbZE7LSTGlcOW8nE7cd1lsUSFbu7JcJ/nRteD21LTQpDQrKeQfqKYS1RAmchifWgEhqKRBYFU7FemDix2ymWef221sJrRGpKtdrI2Ni0iEeelfz8sUVGs/wi9FNj8hW7zHOjP0qORqZNsiQ5GPSEIjQ1/DP1MrMtaPliyXk1kwSHV49FGsOrghUVhjMXAOIIephuVSow5RAvtCfa26li63MNdGa4zHCSTwfLPJRnWrBxcah+97VOIyZENyUfpHR/L+sJoWEofItkVGlCRXt8Okhycavx7Py8cXSLdoeuJzpGd0jWTkUUcPcB6bHsbpkSeN1kX1RkzkHDwrSrtK2+rj637suTbySNDqkU3L0eLg8EMxH+VF/15GIURevSnIZtO1MjUT2bYQaYvMCtmI22vgQrp6Mmkn9BpdU3rlTa5tn8qQE3FhGxm9eDWPyOHTL3TcaHVXhl1Htrk2GkOoevKqzRTpGBPSNCRaEZL3gTod7MhkC0liyNap5XhzGulYNUoRO8iHdqPs6FpTx6u2J0YR4uutCzXM80dEtuhPDEQM+UqcVMpjqK8K2Mg230ZpR2nH2FgptMOQEohmI7zpG6TlRuLlfzLZrqkBKV5gtAhCaSRFrS0yjmz0gsSkh+XtJOkvbdlP1v4fXRvcKnL+ErlcCmQIpdXgMwg+l8XkiBwQz333Dlgck2yI9RULDNkeYqOeqbel2GAiGNpB9hcNhO3tC4u245V/CbL5V+rFqSuZpHNTaonPU+XtZX1OIjJUNPSzXyTj9TKM/NxVUkTzZ4FGZrx2Oi3SvEZ+tE9e4xFsC0ljnYdW9OA8aYBVG5zOOyRIwflt6al3VOPQVaUmm7SB7JJHef1aG5ueIPIQkWR6rUlFuMq0m9oaj2qjiYht7IM0NNkOMqmcxiMQ0ASfO8Ijdc+19B5tSbZ70HuzvjWSPSL61KgZRfBjAZxkO9b9fPBsIALpVPHeIeH5VabP92rca/8k217vTNp1OASSbIe7pTmhvSKQdSOznuPb13N8Vk3PjGx7XQbTrsMhkGQ73C3NCe0VgSTbXu9M2nU4BJJsh7ulOaG9IpBk2+udSbsOh0CS7XC3NCe0VwQ2ki3a6/Zjp1Q/OFYfP/9Ye547+rVfcrzPVxrPvQ/XjZZkK3jhxkX59br8fKj3pbzb6qKw72+jKWLRF/PDGpNCt/1GEb7qp6/p+ag+q3qT7w8FTLtrbiTb7uwOK3rdYiU5qnJM3DBKhLuJbOjcM2pM6nn5KLVte8q10VCPmr/uR+C9yVYJ4TdwWlhvIVslQNlU2okosU4gxLDyVlC6YRvZcLe1K0BkZ5u/H4WAIBuUJOgV2bHPSOV32xSKGzV1CTow2W4EVaXyigiWLpDjRhs+1aZQ2tRqn9nqrm3eVNp2d4foYZq3YctITIyiFMhBEZCHkVEklol1xrKsl9JPvR1lK9niMaX2bD8SAUE2PUxELum8zfkbM/xLFCCaLHFQZMRvJEdTUUzAc5KUMBaXvWsEFmSDcyzTihUJGT1DcOxhFMEOfSftkMNEs4gMkc4q913vYNY2x7VAoB8/q4XlHYqiatdYvx0vf89DICZbdXhBCipFIBzXkrGapPoB+SRptNlITsU0kNDkiosA6fFBxqlS9ujR+1HJylE00c7ce5kSFggKnBzIZnSupngYjVfkSLeLuG9Qwcrfvf2cCciG6aTxXO3cWCvSyFBKWE+vVrbqEKRgI0nS0aPsCVJRTkv1osHQPyiyhQ7tI6CNbEQQ/aKGrYXWNrIV2Sia0lvX8Rh2zPw9CwFHNh1VeBjl3BTp7iFbh0R1xEo2TAk7csqejgxbH7Ue88xGpJGRj9v8rGXJViwMCaJM324zpJY8XlUTLgRqgPzxQAQ02QZOq5ybyCbSymqjjEidGpM8lziClut6LJCz6egWGR4rbhEx1lb6iBig0UasQeSpqSS/+Qx1GpnI6nVCll4dUgbpbDRGnnsMAoJs/WeoMrR2bvxd3kK26ObJs/aChF50NBUwUC1fJ8/VsVfqUPqxqtFcbzLED53yles3lmhl3qj2FpGQ4CEuefIRCDDZMKrxsw68QqeIEpLt8on/6kxc37EYTIQivaSvTaZGQ/G6Pqjf394s4p8Yio6q10RWO5Z8e9rGCxrknJzucaHUIt53Uh3ZwtRNjCev93TC+cEbQxedeMFg+036iDZsi4rC4GxORYDJdqXaSj4Zfq7sn+K3IqAJvl3Lrf22j5CSYwSSbGN8dnm1Rj+TOq4aWiNiHPFW+6bAFASSbFNgfLYSiFJrL3bYKkg13d/dWCBbT0DgZrI9wbYcIhE4FAJJtkPdzpzMnhHIupFZNzLrRj7JBzKy7XkpTNsOhUCS7VC3MyezZwSSbHu+O2nboRBIsh3qduZk9oxAkm3PdydtOxQCSbZD3c6czJ4RuIJsuCvAfPy758kd17ZrvyDZgkR+ZbIFpXtkfjjZxl+i4xftrgwAf+kefbIEX86bkgOj2h64qZK/mr/tq399IybbKJT7byOBfNJ+j8sGmfx+UqA8v3kF2YLB1WbR4PqWU/UG86ZK1aW3sxidYkZNRtj2YsfXqzyQN/qIFxw4/OZwoo0KE1PTslwrc5DkgjnJbTowHy+j+1FdFimnx85f9yDw48mG5eCiKlc9J6/OVKJdZyWO++HKLqPkiOgC1VhfEeiTbZqNwo7arAuQJJIV4ArP4SJA4riQWZlmN8nlcRoCjmx2A6bc7Ck3kMLuabnpE+pIwnlZUg5slX2t9bAS28iBaZgkR+0IDg6rb+zsMTmsLOrfsFUl1leMsTppZrNsJH187NvCMpsK+3TItkm/GCqb2xFQZAOiyWpU5aUI/3aEidLIqI5JdE7aGEWYlRTyD+xfiWoIEzkMEFpGBCBEFFGlaaUd6QOZDtlMxL3dRmvJxKJAEeZluHpe4uRtyDO3ISDIBm8bZSSzKjeRbfG1TIDEPtqxfh/FqoMbErVCNjLaBc4B5DAvSGSfOnCHKGxUa4X6vrN+nYr5uUQOHOp0NjYTsBHorlfwfLPJZglWDy40Dl9OQfO5zWJ2/28m21r0CYr+qPqOwhZNLk8+Idqa4HzkJOA82ol7juBJo3VRZIpfBkyPbGFEvtXGBg82emTTckRkhx+K+Sgv+of2i+vZvBmBh5BtkWXsNpC4Wi9vcm37VIacSL7i5jYRlcjFv4t+n8qh40aru4HTkpcv90jEUY/tK+fYpkint5FHgtZWm1FOjEeahkQrQvI+UKc8TkGAySYJ0lG9LY2EziT7+XFeKSdHg/GqHTsdX6ce7WiePyJHhlRORzci71rKFOqrg1uyzbexzREbMTZWCu0wCwkQTWNge0Ypr5PJEzchIMhGZef4hQiUkOPfRKAvGmoUtUSJutFzIKkqR3L+Eg1cCmQIJfvRW0FKCWNyRA6I5165bmR9I8oRs+KCWEkMCdvbFxaNeP66HgFFttJ966t/GqoSEOs56sp2+KwW1oGk3vYIkUKmWyQBq7JxKrpIaSKmTTHZiMzb0lPvqNHYOrI90sY21Y0vhDSpCNcovdV4bIuczZpsXIGAI9sVfVdEkWz5LeUKTtde1gS/tvdY/pG6xyO/w9XHkW2UYr4Dsg+cY43c5nlsynA1akYRfIr2t1fyMLJBejn629rbY38HABCBdKp4h7raFZ5fZfp8r8bsrxF4GNn0MPkrEUgEkmzpA4nAkxDIupFPqhn4Z47z9vUpM7I9aVXLYRKBJFv6QCLwJASSbE8COodJBJJs6QOJwJMQSLI9CegcJhFIsqUPJAJPQuBqstUvQ/QXx08ydb/DJCb7vTdg2T6+uEmyTfCTZ5Jt/FU+bhly5RX6W4nK9Gn7jd7oqncDKJhwg6mUl5959XZd0FYoKct6J9vIimF+0bekuBWJtmaJLq0JOznEbgmJ7ZXfkibZGqy3N55JtmgTbLO8t8sanSLrbBJSTOy6YEgCkQjW5/wWkbTJXBcxk2wNuNsbTyVb1tkUNwqcfRSZoMyDjtIQecu5XiZA0X59B0SNfCFZhZnYVGQrTlN2VesNpPrLfXIsJRPtWcMtNifcWFqO9lFvsy6x67vqM+Ot64mLDtV+QtdQj7RB9Ck4Uj8ogES1NDVuFW+po+DS0VP1Bdfp9kFqYx2h5zhy9YW2TePitM/Kov7hSg8WxvrKNauTZjTLRtLHx74tRaaHGZy3OLFWbo31s1xpObJVZ26s8BtAmyM0mc/lcgKSNtXoVE2kXMBzskTCFl26UldRdItNV5CtOHkzHOamMfHz9fPwNt42j4aobuCzhtpis5JCZp1NDSH86pENF4Vf/1p+auUBy3ObjpBVR70XwflgOE82s9racnXVsZozgsZ6rvWLHbtIglPyir+uCxzbDIfENbVRjNAWm7QM2tfmEc0tPmf1VKm6uJCNV8zjxPjAaNH/eyepK6yLOl4uKugDq7N4CVAczKVGvajk7Qv1CafVEWOmjdaWQLcS6V2HuernNZS1Fct6i5waB354shmnXcyO65sJUsZTDojObcZTjhukojXK1NSUHHmDHoqGo7FoMbiVbEa3wu2OeQT3rJ7S6Qs4gnbiXlk6Txqti55XbBUudEBHQm+h1ccSfuy4dJ6Xszrht7WRR4JWj0wk17vux689rskoaAhxnE82Q04xFpKNV+5V4o50CcWrenZCNstHMYXajOZhZdpvuaLWtk9lyCHlK3pu8zOfdeQyhv8TAzqmi57NotaI9MFF78RzbWwmYGPN5ivJJjGnoaJzdM0cPdnMyn51NML6k/zcwyOqqEWRxHiglvHPR6yNW5GTaj1boh/KmPlbPWVUe87+rpapKH77PHiWtsWO4olRZPm67Wn/fBCSI1jFiRjqWdEpp8jIZGYRS7b5NvJY0IqxIane+HjeLizR81l0jtSboydb9IJAEKI6lvhd9FlnozeVSgxfkMhz23VxyljtL7oEKW7RU/uYN352HtHconNNV5sckEsuOIDJ9fOo8+38Hzl/iVYuhQzIwmrA6em5LCQbkVU5HDrhS9fZZBSuWZDoTSphRlpi7OiqPnqyXT71q3/h1KXrFseuQyC5omcsMmGrLiJv03WTTfjipj7viT9xCF33kM39yUTopfneMg/qGx+RNPahndLA4DzpkX8+6DkMnN+Wnkqy9/SRw5KstIHskkd5vaezZ2PTE0Qe6GNeCNUXODoaO7ngeXUcOZsVtQ7XVxAAAAOiSURBVBGSTYvkr0TglRGwqevMuVynO8k2E/vUtUsEaoRS6fAkM2vU1NFwpDnJNkInrx0EAYhAay92rpssPL9SSrylryLblg4pkwgkArchkGS7DbfslQhcjUDWjcx6jm9fz/FZNT0zsl29PmWHROA2BJJst+GWvRKBqxFIsl0NWXZIBG5DIMl2G27ZKxG4GoEk29WQZYdE4DYEkmy34Za9EoGrEXgS2XyZgKst/UEdoo+Tf5ApOeyLI5BkW7mBa2RzX4bj9v/xZzy9rSp8njd5mq/T8cvz3rh6K//K5PLyUxF4EtmunJPaeHll38ni28hmPkbF3btdx8cPWHt1HNsUgu0hdA3IZsali3ncJQJJtpXbchPZik4kXBTh6h6oEqHWvhpPsq3cnde6rMhWHevyiVWwTF1DuxnUbY7UmzPbRk+sFuWc1hTBoU3OVQ43eJIOWf6OSuLRNblju0B/3xywP41PWLi58k0eRRi5+ZF7yC/QV/ZDJdkYtgO0PNmKo5Hn4wRhhzEX6vG1G335OiAN99FkszU5Sn+WtXVPCOd1OwRZrp4D9WU72s7qG8kGRDQ7nU00G+70TbLRrT/EMSAbOxvMEIhhfLd45nI6UU2NQEZdR0duTmvJZrA0fbfb4QmzvW9sk14kjJ3tH6XoPDs5suALELm93smIMQbX4hckhthCVTZ/PAKebJZVJt1r6VtNtYhs10a2RdQ5IR0CjIhsm+xAst0yh07ZvHvI5iJbWPZskEqukq1DcgFlNveDwGayWf/VU4ie13SE7DltPV+JK+QHZBvbMSbbsO8DyGaf2eJoRK/2A+Ik2bSbvfivdbJhHUj1ksJOujpqEKGEXI9sVcQ6ekS2LXaIFyRi6HLW/3sEWqArM7R7lEa6t5FBCkk2VFIF1X2TbITQIY4byEYpnyFTIYR5BtMppn6bqZy29JVhxpLLkg+hhhcWIzs6ka38cxwfZ/GMiQrVHPzzXou6bZ7+nkO0MlEp+jtbj1BVJaSStiZhVJefLAjHpYt53CUCm8hWLG9v5ui1uHJASCMlf+wbS0U2ikCkq/fPSeF1qXdsR59s63OoEsvHmf7Jp7i2pL2LvdTQFpexKaXVE15fjWyUgorjI6pIWWPz900IKLLdpKERUTxzoSIghj9/6zjZLxF4ZQQmks3+Y4fwnKTSxVdGKm1PBO5EYArZig0uvbP/QOKdhmb3RODVEZhGtlcHIu1PBB6NQJLt0Qin/kQAEfg/pJa5/Eg7m88AAAAASUVORK5CYII=;" vertex="1" parent="1">
          <mxGeometry x="550" y="37.56" width="178.97" height="172.44" as="geometry" />
        </mxCell>
        <mxCell id="egsPrMgl1LdYm7Axs7Or-98" style="edgeStyle=orthogonalEdgeStyle;rounded=0;orthogonalLoop=1;jettySize=auto;html=1;entryX=0;entryY=0.5;entryDx=0;entryDy=0;" edge="1" parent="1" target="egsPrMgl1LdYm7Axs7Or-82">
          <mxGeometry relative="1" as="geometry">
            <mxPoint x="70" y="480" as="sourcePoint" />
            <Array as="points">
              <mxPoint x="40" y="480" />
              <mxPoint x="40" y="376" />
              <mxPoint x="10" y="376" />
              <mxPoint x="10" y="311" />
            </Array>
          </mxGeometry>
        </mxCell>
        <mxCell id="egsPrMgl1LdYm7Axs7Or-87" value="" style="shape=image;verticalLabelPosition=bottom;labelBackgroundColor=#ffffff;verticalAlign=top;aspect=fixed;imageAspect=0;image=data:image/png,iVBORw0KGgoAAAANSUhEUgAAANUAAADuCAYAAACu/ULtAAAgAElEQVR4Ae1dPY4kOa7Oc5XdZ8n1+xQDrFOHaGNOUM66M/YCizEaaG+8BdZ9djxQJMUfUQplZGRVRCYH6Ik/iaI+8RMZyqDqsuR/iUAisCsCl12lpbBEIBFYklRpBInAzggkqXYGNMUlAkmqtIFEYGcEKqk+rpflcrksl+vHzk2kuETgtRB4OKm+iqxf1e5rmU/2NkIgSRWhkvcSgTsQGJDq1/L+BiHhdfn49bFcyzmGiG/X9+WXavTXx/vyVp+/LdcPeMr1KayE0LKGlx/LFc7f3pePj+vyVp5dlw9Vx0ShH1es++bafee6IHumXVT6F7RZ9aW679A6/9fTb1nivnK9PCYCiyypt+FShxSGHMCddyKFJo8lSCGTqUdGy/c2kOrX+xsSzch4W95/dfQmlsb1NOHBLDr6dfuappQICAITngo8CngrqPRrqeRjr1G9CBAJinws71Ce2qjlretBTwWEuGoPIYSwxb2nEqN/eyf/UtoFUmHDa+3WemVeYIJyfZFv9FvpK3U5Dy+OwBSpZg0cPNJbJeCMcbMR8yhMkqp6DCEvS+BjSComBYS0XLAchUTYV772+vF99Gy+r0ZkXrwsAjuQCrD7tXy495s5j+GNdpJUXXLIOD6GVOO+Sut59soI3E8qeOmvIZyQgsOr0LjrO0ufVDXsKmEdvfNwyFk91WXhdjjsHJI5qmfCP/Zg7JGcfit9fWVDyr4LAruQyixE0MIBh4zNwkB50DFaY+B64cORCpYS+MfqZqECOxe326tH4Rwzskf66iGtbtxXgTXPXhmB+0lVFi/4RR8WNXhpm2H9tbxf5Tl6lj6pcDFEyuMiCZVnT1VEw6LJm1p5fFuulRRQIGoX79tQNdK5px+2WSeRpq/c5zy+MgKVVK8MQvY9EdgTgSTVnmimrERgUT/+JhqJQCKwDwLpqfbBMaUkAhWBJFWFIk8SgX0QuNSVLLM0bZeMs0zikTZwgw3sw82UkggkAoxAhn+MRB4TgZ0QSFLtBGSKSQQYgSQVI5HHRGAnBJJUOwGZYhIBRiBJxUjkMRHYCQEiFaVsmA9Wd2ohxSQCL4ZAkmpmwEvKh82talJL6He+mt81kvufn8u37/9efv+vKlTu/bF8+/5z+VPdxtP/Lb99/2P5x7/+b1mW/1t+/yeUG/z78b9S7e9//Tsu98+/l799G//9e/lHI9PqMiMvLuP66tsepPJIrh5Wqik/Jt+GswpUfl3Qxmfdelz4Fxjiwzv1qDYDuUgqTmqknnES5JrHD0hljJFIIXhpUsndchbI4hIo0xKDn+njnz+QoL/9R99dllJfEXBGXlQG7/2xePm6tUqW6CMEhWctV0klibGwO5fsiKWlf+55kmoG71lSgSwi1tBjBURgY/y9eBc/sz+OVNiuby8GhXVsPamUj8ug/t+ayULqtWQBKGnDn8tlYQ75chIxuAlORH/6WSVVUVYxvVxDmrzeCkw9L5ryzEyzS9NxNeuwkbHcCk6RSbMNCyAYvE5w2+gDG81QYmKVF7QZ6Qqf3bjmMJv4+iFZxdzfW0hVQ5nBIA9I9SeHd8pDLMujSEWh5MDYaSjKISaMLkHerQlhB/pT9Tp+ZlAkrOPbplwZF/h8yIbmVqPPvxqTCgyUe0Mp5mzEvDeeXAMxlCEFhgjdM6DU/s6RCgmlAYR66rrT5kLg166gImXfQNG/p1tRuhk41EX1t/aFia/0Us/K6ZBUy7KU5zpcGhhlIIubWyUBvUfhuxrX6h9X5S0xqTC8HHvD1i5gMyHOABcspdy1bnNnxrWv/qc9GZPKaVs6xLN3QzKnc8fAERRvjDOkwjKaBK5FYEVj/CWtHnajdX2Bul4Xf13lB3JHpIr1qNKINNbIvMGiIfL70D2k8gsaql0ilX7XQT1UHeUxm2dlYUPJq6RS9aHMhCdE7Dsfraqxi8qpxwrkrzu9g1Q8I3fcb2CI0M0CSoPCBKko1GyqauzCNjGECOu58rFuX+CpoE/Gi9xDKiamBorOTRvt80LshlQDeZVUUoaJqInbtsQTnCNVsAdIJZUO05t9HKMWPu/eXaRiNWtHdeecwZqyjYU/kFQjMhYdxWvuRSrEQ+Ry3+sxCNm8p4KyeA88wYNIRe9qPU+yB6mgH15OxUGdVBtqbEMV4km5vpbIO1cUidian3e1C6mKut54byJV7MEK0LPhJigRtknAB4Nl5cc6lL4FcrvhH+EwDFMnScULFN9+/FS/UznjCGRxiYio/IyPQly+I0dPhnl54qmKtKKjfkeUNvhsG6l4zNHDBUPM4j/1uJ1UYGi6F97wPMmoWwU8XY/u+0WICnIlFYeb8tKK70vqutMmynarfUVfe6+nW0TWkFTU/urvJQERugZLBgk/9oYLCoEstqCuTC5QjvJjsg3R6P6d4R821coyKjQeyD+V62oXyobqPR0pSZVPP9tOKg0ELWOrfpaOSGfFeLuGq/6MDix3w0xfDFeRCoQyQTgT1XuEqE1Sxv2VEEVGgr2rm58wAj1YH48BibaHgAgjAhSP8b0z0weyuDGU6RYNYOFAEYXL8oqj+VLDlZuR1+sH3reLGrVtbUsrANbxNeWOFQZWUukO5nkikAhsRyBJtR27rJkIhAgkqUJY8mYisB2BJNV27LJmIhAikKQKYcmbicB2BC5//fXXkv8Sg7SB/WwgPdX2CSlrJgIhAkmqEJa8mQhsRyBJtR27rJkIhAgkqUJY8mYisB2BJNV27LJmIhAikKQKYcmbicB2BCyp+Ctr+EDWfci6vYmseXwEMF/LfqV+r9b4ZXr4Zf29og9eX5EqThQ8uP6Nej4HyBagFIQmvZvud74Ej7/O7n9xzVm7+otvbVy9L7k5f0qXFf131lEEN1uRsR5a/5ZwSMRhmfIFvcutUu0+66kiFX4+71MpTtfxMpCdNIlgT4bSPxr832D/u4ZwnIFrjYOJ5o0tTtOws/YmUu2oox1Tqxs8gz7ofmGf9CSCddoyth6TU5ezbT/n1fORapAi3jPmYjRAps7MGtejmVqTcERoZT+xPCjQT5vfTUelRzktE40mjC/g98sInsOtzn4XVe9OtWe8jaSiLFhOtOMkQegwJ+6Z5MDgfasmj1HCoskKXpOj2w9kY+at2hQkKqNGB2dW61nqdsmaBKWOfp+IjTomgS9L4ZlL7FNq1dNYHjz2MrnKXjqyPDn2dZEyTJihx+mQakq+auoZTlc9VSVLzbRsw0QoY8LGIK29J6cQeSC7TVund78RsSKPsRL68a6rhZCOGJFhIHH1DI+GH4WP3lAieVimQyrnQbfr6DWZ2ZRlcrKIMIfmyn2NU6vDs92ZI1U1eux+IcjIqDk1XtWL6qzfQwIrMaxAsL+fHhoyBOWViiE7soTeKzACJIFLS1eyseUOIbRadB7KU38cwC5UtH2JDDWU2ejolQlklyJ0v+rkvb6XQxNKg6+EhUMv58Wd/HonUpH34NCPj4oN6wRCJE05vcTPMuux3WNCjwUaGRsDGok11t6At+SwsnjhIn4p391ThR52q44aITjvkcqWY8I2+FGx1mur+qH+6vkTnu5Aqigca5fnDVkIyNV7QRg5PQZ6MMt5G4KwsehlYTlnQjKJ5Bp0aEMwMtBotnZKe5LK4x5ZnJcMPEgks9VRWsKzWZ2pXLNHOuHg/yyQbkaPg77/xOf3kyo0/J1Itba19HBgZBaOjUueN2Lc+0FksLz7kA5rmKT6XiO7bpJpSYrlPKn219HrE2PjS5EebsIodTu/7VUJQThdnz3pyf2kIsPXq33FA0GYdm/4V7cCc6EerBYO3+lwtNjIwfs0oYsjjh1fNG4O5UJScehkDI2MLzA0MEDWIZYHGjhSPURH29NWF9DBEZ70YP1BAmO7fQKxejzT1Q6kKpa/vNV3HSRTIdYOpAKwzXI+tDNBKBwkIoc3Eg7fgvs8uDgLo3G1hoel8P5cWNkapDPcItKSSuvAeumjfn6rjlVO4EmYMBIKd94faxiqw1OLR9HRTDy15ac9UaR62j5mx4YIWCIPi9788JGyb1bm0yokqT4N6uM2VDzTI7xJ8YKRRz4uFntolqTaA8XTy0CPsvZ+dFs38f1Sh7231T9v6STVeccuNT8oAkmqgw5MqnVeBHLfv9z3MPd93NkG0lOdd0JMzQ+KQJLqoAOTap0XgSTVeccuNT8oAkmqgw5MqnVeBJJU5x271PygCCSpDjowqdZ5EaikinKbztut1HwOgfySYg6n20o9DanGX0P38pL6qRoAY/S19reJhDz9dbf+TKf3JXmT8mHGcGcdlez2mz8kmda//XRposyLfvPH0D4NqaKkQe5kdzcgGvzc7w+RgolJkwhTS3QqBxK8LWPr8SShy9WxeIGT5yFV7venzJW8yWjjl84WA0pIdy+/mTKFkKP2jZDnuuiSipMMTYJgkBxYs3w5SVElJgJUQzm53x9ZE5JAh4r4AO/jjB+XiUPKuKw23bieLtHbGCcu43Wfku9EPcvlmFQmJT73+4NBb0MiNGBOvR8ZRt/QOiRw7yalbZf3FMlsdWy1imTZUvQu59qzZXhfPx/+8X0dOjY1n/bGmFSR1wm8laCz74Yvrnlwe7nfn1soQVLpdPZ4P3gZIzgjwjThmSyK4GLFWoIhTSgR8V5wFyXG+E5SEYk49OOjYkO0VL96L/f7q+8z9mW/9WjeUzHJbD0ebj72SMXP8ciyfGjHpYYeMUlF7z7KC/G7EAMIR0sGIpSqs+y1M2247ZnWZHCuB7PzMs7GopeO5VxmZ2+w0GobNk2GSXWJXuRLL3pkcR6obrQiMuZ0lJbwbFZn9lzSHksaEgoK6XHgSi9y3O6pQsPfN/wz+7NPD4jMwi0BQIg8b0SWdxh5P4gMNlq6Z5KOvQP/7tUaKC9Bi0fYX0ff1xgbX4r0cOEdEkpw8rXKdcEy36nM1l/rngoXLpq9/czihvduCL/1ePE9XHXM/f5ag6X3GHofConPE4cjg5bV1gO5jvA0yQjZeWJYIdTQK2stnvN8u6cCPPy7z/WjLqEzXDMEgrJRObOcD2Q1oSa3EB3J8LyRcPgW3GcpOAujcbWGh6XwfjsL430bsrUG6Qy3iLThn9aB9dJH/fxWHaucwJNE+lvvy7jaPmLobPEoOg5IXfV4wpNKqifsW3ZpiIAl8rDozQ8fKftmZT69QpLq0yE/ToPFMz3CmxQvGHnk4/T9kZokqR6J7uFlo0exId69SuPihg5775V4tvpJqrONWOp7eASSVIcfolTwbAjkvn877/n2V8p7+X0E01OdbRpMfQ+PQJLq8EOUCp4NgSTV2UYs9T08Akmqww9RKng2BJJUZxux1PfwCCSpDj9EqeDZEEhSnW3EUt/DI3AcUgWp8s1X6pRZPJVnFXyFzblQ38Kv1PVHoJRHVJMCg6+yTepF8Dz6po4S9yQhEurZb+SiL8VLeSUvLmO/Em8tr5OlfbksjGfJFHCpO8tCKT6qXCs772gEhFSBUeuCDz8P2kdSXZcP3Tinm6ylgQSkMsbY7M+gSaUbHG9igjItMVztconpGm0eUqnfEGYsL2qT+9b/jm8LqVSdNbyjTr/ovfORCgaKiMUzbDh2XVL9XH7/17+XdqfZx5EKDX7Nk2AvIsL4/sVlUP/+rk5CkB5u3lNJpOAmNq9QXhsECqkqmBReXcjV4/0W0HKfZi44h0GSAbgsl0tbB3dCgmf0z898s56K1O/pVns3INWfYWbso0g1SI2vyspJTBh5DmdxmYH+pfqNpCrjAWPlsq+tKnkVIDD2VNE+FO4eGvdlkbR6GjxFmjaMa8tE24+19aQH+Gww4ENScUinw7GBUQayWJPYwPmpbIAymwqxKq9DKgwvR97wFlJdlytNfmpjLNWpPB0hMCZVsDuSN3TttWpDxuvgi24zOKZMyadvZkXfVpUPJ76+eciksUbmDVanpbebryiBq6TyCxWq3WBXIdRD1WneqdSzslii5FVSuTLNO6LSv5wKqWq04IhTJ0iOJi6XpRk3LzavGwRWSAWvL28qnKOBUUiXgVDXOH7vyxsPCC8sqIGSQVWeJiCJbdvqjs9Ufft4wZW+yBjVIgAZPHqRr/FUfi8HT3zfLbj2ZZik/UUKqHUDqXivkTJmQSgfKZX3KgKrpOIl1fJy60I/kDJLKs+7qgGf3EgqnFUHAx54F2+M0DTeA/I9iFSDP5wA7e9BqkgOwypHIdXcQoUspUtoL9LyrI/ABKlkp6MP8FrqXQnEFuN292xohoPTG8iq2i2kInIPZU6SisO+bz9+Lr99/2MJ330CWax3RFR+xkchLt+R416k4t/g+t7qVlJxiI0LS6uTonTp5c+EVIEXqugUg0dwvSGjx9ALFTTDqVEIQzWQqck4SyoOJ3Xdqqg6CYjQJUApi+8ojyBV3cDzu14YAV3bzSq7OqquxWVaWaqKCf/8GHK5dixp0swwkCGaOgqp2OvQu4/ihBqQ9h2mDMT1wy6pBwaPxKLldGjDl+mSStUJdev08xZScRjWGD3JDmRxq2jgbtEAFhfU4gOXZW9ivqhw5WbkxaTSoWxtUZ1s8FSldoaBCsSpU0Oqfg0aEE8EJqJlYF9MPkkEXgCBOVINQkP2VC+AVXYxEZhCYIpUGGvHK21Jqimcs9ALITBFqhfCI7uaCNyNQJLqbghTQCJgEch9/3Kfvpffp2/vvRrTU9lJJq8SgbsRSFLdDWEKSAQsAkkqi0deJQJ3I5CkuhvCFJAIWASSVBaPvEoE7kYgSXU3hCkgEbAI3ESq/HrCggdXiUmLybHuYJ5cPyVmi7aYERBmNCzLkqTagqmq85mk8rlXSg1JI2nS6iklpPMFfvxVvM2YNu0Eexdq4+p9Qc95a7qsyN1ZRxGMSaguE6A85nSfBi+pXPDWez/qsqW+yiKXakkqhcWm088kFaeOhLNusBdG6RAN/m8//lii7csiEjDRfDtsZPa+nbUjeQjsWmb1z2UPHe0gWt3wmRC4pOBootTKVCYiYy3T94DpqSpI204+lVSD1PyeMRcigOF0Zta4HhqMISHN7JZQLWaxPCjXJ9VuOnp1ykRjvS7qB/eIOAGp+n2wDVS97W3xVGAckBFqkwntl+lsQKZMkGPFm13KBi/trjzTslTWcZHn2luXQ7lgLuer1FOyhnK0DqoOYMn17L6GFreCuZYRJGmynHIMnvO4obfwYUfPQPRsGht1bEC+7MzMjRrG8uCZl8k92ktHlifHvi5QpocZ3o/DVJENZz351VPVwazG1yYmtmWC/SfIeKoYaJ3u6TTuGVlIXm2gW3S6gVRgzFXxKOO17W/bj1bHbf2wA1ivIo+xEvr9SZULIV1IExkGElfP8Gj4xnNVhexJJA9LdEjlPOh2Ha0ecBXJklI9UpGeP34u/9DvU981HiSl6N7et6Rys7DdwEXNyqKZ2/glNmAojsYnBCnX1YBRYLlXdUADdkWIoJLWvy4n1sm2RfrVtiN94nteTilVJhHW8YZ+RDv7YrPq/60xFEN2ZAln4sAIkARuO4AmJOoQQmnFp6E8ZZzWA7R9wTDVGmoos9GRNeBjIJsflWPvOU0gBk8q6/6YxNKZzCypvAW7jN91A+4YEHTCGBoZsWvPGChv8EL7UuhQUm9FvK7TJ5DK9YPD33L7jn4YG1AXaGQcAuKAW2OVnXHtO1BLDiuLQxq/QQ0Z2qohc33WTSkdhX+hUW7VUbcF5z3ScLne87b9UuOGCGFfUjkSsvrlWEh1g6cayVKCz0IqzzvVBYJHh57+qbvWxljO7cwOpcPZvXoMMXpPKqjbhk1kgGb2djrRZSQPH7XGuq+OXp81nW8klcacm4ru6d+pjJfgSrd6F/5bRoEFefnrZGjfX1gtfVyXM+EVOTx9YPin3ye1/nwe9YOftUcxiJYAUFqeN3XdjBuSwJUBGUwA6/ka6d2X93ahYn8dvTYxNlyq1z7d9xNIEDpHoSpIt54qelFXBIkGvtxTxsgrg6oahX52BXBeFr+bEBhAdNXeFjmljlth8/2A1mbuVVm1wzgZyIIHb519ez94+KMjGzn81tKEfgEpRIYN5UJSMSmNYZGxBT8ig/GyDrE8aN15qofoKL2Es74u8LRHKt6HX4fAFjNupSffkmpl/75iQNV4UHRkeLzaJ+9BzqDYYCdkMUmrLEUo0GBOJ3qvovez+tOBkhX1Y+YelKny+P1PyeUB2NIPrhsfaaD9yzOHb8F9llNmcHreMwy8PxdWMqFAfk+eJ5XWgfXSR/28J7OnY5UTeBes4xZmSlgsIbH0Q5UL3ieLjmbiwZYbUlWF8iQROD0Czjvu2p++7CTVrkCnsKMhUDxT4E3u1rN4QevdWGaSipHI45MigB5lbYHlts7j+5gOe3X9Sip9M88TgURgOwJJqu3YZc1EIEQg9/3Lff9y37+dbSA9VTjX5M1EYDsCSart2GXNRCBEIEkVwpI3E4HtCCSptmOXNROBEIEkVQhL3kwEtiOQpNqOXdZMBEIE7iZV9NGpb2mmjK+T10dD4PO/TDgaArP6vCSpel8XI2i9lIB+6gPUi79+br/yrgNDCW76L9Xrz15QXvRtWf9DzprOEKRnbNKxKkv9M9/QoR5a//ZToIkyg2/oVPOnOn1JUuX+eWKjPBm0hJAyTFZNepiYdB1M1dCTCE5CbRlbj1NCdDnd8hnPX5NUlDAX7Q7U8xDFaCCnpjOzxvVopta5OKW+N6zWdGJ5UK7vqXbT0avTSdk3xcjzauKZ53DRKVP1biqc84YhVXn34UQ7OLokQuiiKXP96GfHspygTJHB96GcTuorKfyXpZeUyJuq8HOjottkxTxz44Mzqw+veqEfGjLOprFRxyTwZUm+CaOcYnQZy4OHXibX30tHlifHvi5Shgkz9DgdUk3JV00d/bSSCgzd7KMQbLyChJLNW2o2qyLFfJmWtChP5C8LZexW+X7fCnjO5UfPgmGIPAYNemMYzjsVQjpiRIaBxNUhERp+5CG9hpE8LNMh1W46ek2ijWB8mcnJIsIcRJX7Gicv/1zXlVSt2n5rL2+0WKOQqGv0URn2dkwGbhnlN97FbD4T60CtLNeLmxhYdHhsvVIxZEcWfp8wRAiMAEmg0q8hRVuHfUWHDiEC/UJ5dTck2RMCq7Z9iQw1lNno6JUJZJcidL/q5L2+l0MTSoOvhIXNZOZFnORakcru48DhVQ0BA88FfTSkminDdTx7XOhW2y9hpOxxUb3jRe4x1qNnXEYf0cjYGNBImneC0Hu15LCyZDXQGgoZ1qohc33WTWvdth2HXm25OR11W3DeI5Utx4Rt8KNirddW9UOM1fOTnRKpfJgFvXCeaoYwM2VWSOW51sMTw0x49/Iejz1h/MzI04NZztsQhI1FLx3LuRi9N1hopw0TyUCj2doodhup9tXRKcKkWtWZPZdgwpKGhIJCehy40omPSKqQDI5UtKefee9igmwJ/xr2jEK7DsKh3lR29KyKk1m4JQAUkue1Cp+494OIVNHSPRPAejAWKsdQXnnsPdD+OooWeBZj40uRHo58SKiV1c4gnPbSz3RNngoNuoZ6TBa3AugXIaq3qKRiLyHeo1umIdXE/njwfqXr6fet0bPBiLCRg/dpQhdHHCvGhnIxCSJDo3vBD7RggKxDLA80cKR6iI62p60uoIPzSKQH6w8SGNvtE4jV4yxX8k5FM3t9l+Elb23EHBLScnnd706RqoaNgzKFaEauwCXvRbSsbmQzaWXJXYupBKa29TNpwZ8RObyRcPgW3GcJOAujcbWGh6Xw/lxY2RqkM9wi0pJK68B66aN+fquOVU7gSZgwEgp7b8S4usWbsrBh8Sg6Og9X2z7hiZDqhMqnyp+FgCXyvq0+Uva+ms5KS1LNIvXi5YpneoQ3KV4w8sjnBTxJdd6x+2TN0aOsvR/dphS+X+qw97b6xyydpDrmuKRWJ0YgSXXiwUvVj4lA7vu3855vf6W8l99HMD3VMSe71OrECCSpTjx4qfoxEUhSHXNcUqsTI5CkOvHgperHRCBJdcxxSa1OjECS6sSDl6ofE4EJUkW5Vl/bmfLhrPvQ9ms1+szWb/2y4Tm/WvhMxG9tK0lFCXL6a2v92Uzvy+4mBcMg30/vgGLRF97fvtsvt404deG/wcOv0Nsvwc3nRE/4fZ2C5HCnE6Q6nM42hf8O9dggjQFSYiITaxOpyIh/+xHtU8Gksh+RMtGsLr5zrdeZS5u41bv5dvP6FgRel1TF8H0OUAvdFlIVQ4d9KDoeIpaJht9uFqN0ClL+50hFqf0Te2Oo1vJ0IwJEKsr8peQ+TFSUjVX8Owxc1wTFWkeyfVkXn3DoU/H9Hn7QbpRYaJIPOXnSv1OVLGBJXjR7CbJC9Ujh2UQqQ0wAEIQkYI9WRdN99DhxmVhmXFbkxh5ullRxm1p6nu+FQOipIhJpI61GXhnQLmYgoYSYmBGsrokEVQT0iO5p8mFbQthKVEUqvCdlavaxKmMBm/AKVKFvjB0SOO8UGX0ks5Rbea+KZGE9+07VEv359taz43msq5ZUxbCV8fN+FcpAPelKl0w9JJkmh+2231RGnloSxZvB2PaxjCEniDP6iHw86xDCF+suKogRWwMmD6jDrEIyuwiBpBIZZZFE1wn0GG5Co8qzbKvX8+1YpLp8uFNHqnYDGNDYGjFdeyvWuxfp87DLHSJgY8uF9/TryDH6+L01ajgKoaCdHESVB3mqcKutlsDeUzERZhYphu9c1MHIoz3bNmAylsc7M6SyXkKUNUbMJLuHVB2ylBaLh6FQrlPO6NMpI9pHZ495p2Jy6OV5OZfVPk8q0DAkglF9XmcMCaW9IiYkvGkgL3ZCQEg1ME5jxEwqFQ4WXUy4FYdtonPsEeG5bSuWM1NG2orPmABj7xAvDqBE74GC0I+bdiuNEamiPQK5Oh/XiQclO+QLwlCWm8d9ESBS9d9xoDlrxHQNYVb1Vi1J1hYqeMGhijDccrQAAAfTSURBVMCGyl/70PdK22oXWry2fymkbasobf+aSIMbGd+Z998D7+NWMHuTRUjkBpO8sQcCSCryUnXPP3ov4YWGkFTXj4WJUep5zwUbR7+/yZ/Eif54QPFuahk8fAciwiudilzXnm9Lr1aOgGIjlDBNNrSEen1jtJ4qDLlUw/p5Tybet4saSkTw1zFkYhD9XdhHAua8nGktLzYiIOHfDQIKybQ7uaFuFr0HAUvkeUlb6823kCUFgSSVYHGKs+LNXMi3qrj77Wy1fBa4C4Ek1V3wfUVl9DprCyyiGYaIze9WUiDPdkZgE6l21iHFJQJPhUCS6qmGMztzBARy37/cp+/l9+nbe6/G9FRHmNpSh6dCIEn1VMOZnTkCAkmqI4xC6vBUCCSpnmo4szNHQCBJdYRRSB2eCoEk1VMNZ3bmCAhMkoo+anUfsR6hA6+nw61fVMwglF9dzKA0W+ZLSTX+cpq+wG7SzOXL7OhTHfzS26Wqj/Z+oOQ9+cp721fqFvCddVTC22//kGRa/xaXiTL5faBC+b7TSVIFjZikxOD5zC2XvGeq9DJVafD32FMP0zH8NmV21kaSRukUaKjhN3U76mgwcXsSwjPogyYR9kmnj2B/2jK2Hu8OpcvZtvNqFoGvJRVt5xXtu9Az5mI04L06M2tcj2Zq7fVGhFboxfKgQJ9Uu+mo9CinZaLRhPEFZIOXkOxcnCYsX6bqzeXyuAkBQyqf6MdJiiBZJyrW7Fu1yQqUxft6qzDUSdf1WuLM6j0BhU+aBKUiGjLOprFRxyTwZUn+RApFLA+U8TK5Z3vpyPLk2NdFykxt8NIh1ZR81VSexghUUiGh9O5DsDgh1w0xovAv2uciuqd1iTzGSuj3J9UvhHTEiAwDiatneDT8yENq1eA8kodlOqRyHnS7jl6THTeHiTCH5sp9jVOrQ95ZR4BIhat72jP5qlOkWmiVUGUFI1lb7yXyW69UDNmRpW5oor1XYARIArdQoeuUhjuEEKXqWSjvu8i3IVTbl8hQQ5mNjlUFOglklyd0v+rkvb6XQxNKg6+Ejvle5TG77RpJteZNXPhXmog8Vd2XgknUkixSD42MjQGNxBprb8BbclhZ7Gnil/LdPVXoYbfq6JHqkcqWY8I2+FGx1mur+qH+6nmeTiGwO6mWRW0rNkHWoqUezHLehiBsLHrpWM6ZkEwiuQb5bQhGBhrN1g42T1J53COLeDHRD+6JTpHMVkdpCc9mdaZyqj2WNCQUFNLjwJXyeDMCFP4pInREzIV/WJnLfsBuSlM/GMssHBuXPG/Uc+8HkcFGe+oxSddCnVBeUcKTan8dfV9jbHwp0sNNGEgo77Fd3SCcdiXycgIBIhVvJyYLE/4PCjBRfrHQkRdSW4+N3tNYFBzZyGF2b0IXRxxdj1fhOJSLSRAZGt07875/ZQVSPGDBhbDSGDK22ycQi3hejRGopIJis0vqLLIQjZbV1doESFre30Z7mbMEfcSZX4dJ/BRnWWc8/JDDOwp3YlIxaefCytYgo7atp3qkjrWrgSdhwuhQ05KHcY3CUovHnCes2uRJBwFDqk6ZDbeJVFOh3wbxL1vFEnlfGB4pe19Njy7tMaQahYZHR+Tg+hXP5N6XdlG5eMHII+8i/aWEPIRUGBbysvpL4fkJnUWPYkO8e5vF90sd9t4r8ZXrP4RUrwxo9j0RSFKlDSQCOyOQ+/7lvn+579/ONpCeaudZKsUlAkmqtIFEYGcEklQ7A5riEoEkVdpAIrAzAkmqnQFNcYlAkiptIBHYGYGnIVXzFf3OQKW4RGAWgZchVfQ1d5hmYpDrpYfIff11uDmn9Pheu98e8f2e0T0vvgqBOVJ1UufvUnpnmWueCo3bfTBKma5dA6ePTHt7DNb+BykZ/Cxslx/m8SkReG1SwZASsaKPSUt+EXictS+4k1RPSY6tnRJSUbrGxSUd6kREfqazeZvnNlsR9wK8ftCegJeSXv9+hQRG+0/LXFTmcCkX5GWZdll+UI6BGXmMOMFQfw2+kmuUpGKY87gsC5HK71EBSYYqdaMTqoFhGzIEeVTV+B3ZkDg6fR/Ho93SrE14RJmiX81Y3kgqJJzNgvXeaZgVm6RKMikEOqRSJeC0QypXStLoFYE8AWqdUCaSW1XH4qasnwC4CHrBuodGbQhPRp6q3ZuPFiL0XnwD4rT1pXFs16eyOwJL8Tx7AgRq+Fdn+0vrPfqk4r0obCh3UawopFLXFTNDFLrrQlAbIpJegTeE2qWdvTxVuFXXIAQcEG5I5gpGnjwTApVU3Cn0LEASCa9iUrVhWd3wRZFoC6lUdVZLjg8glX+nir0Lexu3ggiaJalkfPKM36kcEt5wB17FEoCIpm7eRCq9EadTSS53Dv+a1b8g9OPGC3mCvfOSVIxQHutCBZBGEaHxTJ5kBTo0bl2vejklq0uqUCZvk+ZCUNBPhXbYjnjS2q4q40c3DMOi36l6xCkCMQTkPQZrG0mqCkWe1NU/eidRy9yKFwWnariXy1KfETHquw8vbdcCJFdda9BDmcH+g5pQWN++y8EKZHknXCUVh3By9Buo+FBQ6wvn4fNVUkl79auL/KLCQ/s018071dP0LDuSCHwRAkmqLwI+m31eBJJUzzu22bMvQiBJ9UXAZ7PPi0CS6nnHNnv2RQjkvn877/n2V8p7+X0E/x9u621bhf/GGwAAAABJRU5ErkJggg==;" vertex="1" parent="1">
          <mxGeometry x="77.86" y="398.78" width="170.04" height="190" as="geometry" />
        </mxCell>
        <mxCell id="egsPrMgl1LdYm7Axs7Or-88" value="" style="shape=image;verticalLabelPosition=bottom;labelBackgroundColor=#ffffff;verticalAlign=top;aspect=fixed;imageAspect=0;image=data:image/png,iVBORw0KGgoAAAANSUhEUgAAANEAAACmCAYAAABEHWqWAAAcbUlEQVR4Ae1dsY4kuQ3t75p4v6Uv3684wMl8xAX3BZM4vYsNGBssMNlmBpw6LkMiKZHUk0o1XT1T3UUD51JXURRF8YmURuJelvhfaCA0cJMGLjfVjsqhgdDAEiAKIwgN3KgBA6K362W5XC7L5fp2I9s7VX9/XV6SfJeX5fX9Tm0E29DARg0cFkQQ0AGijcMb5J+hgccC0WdoJNoIDWzUwGYQvb9dl5cXDvs4tLq+vi0+unp/vXLoReHX9a1StDwuy8v1lXm8L6+GvwoxO56o5feyWJmE53V5e39brop/bXej5oI8NMAa2ASi99cXWjNl8Ggg2XUUppN1zNtyRfXTu7wWE4MH/AGIcFsKeLmjHZ4ix1HXgGGmD6GBDSCqxv+iVvXViFuQFLr3t+X1Rb4vy/vb2/JeHdOSvFbe0HgRb7Qsc2uiWZkUiF6SN0pj817bUO0+xKiFkIfSwDyI3tjQL9fF7t1VQyZHIjtonk71O4dUwKspY54C0axMSwWRcTpSX7WrpIxiaGBKA/uDSAyzARvLU0IyF66l0EoZc4BoavyC6AAamAeRMv4SpqWgqKyT2PMguhzOXelvOwKyFFYVXH0wnENtIZnCEx3A1J5XBAwiWXDLk2Og4h3kvXpqYGE6XhMpw8/rIMVDe6IKTrVJUOrW9RVui+pUmSKce14T/vqebQJRXoybresUgr0sevuaupQW7S92i1tvRqRt8gKetB39Sjt2KpxLbb1e67opAwKAaE6mANHXm9rzSmBA9LzdjJ6FBu6ngQDR/XQbnE+igQDRSQY6unk/DQSI7qfb4HwSDQSITjLQ0c37aeDSbDOXXTPwx9D41j87GLo5r27uh8/gHBo4hwYinDvHOEcv76iBANEdlRusz6GBANE5xjl6eUcNBIjuqNxgfQ4NBIjOMc7RyztqwIAon4g2h0Dv2PIUaz44eiiZpgQPohNp4Nwgyneb6rWKNO7NFQz++0+9VjGwjn//XL59/9fy538UTX731/Lt+8/lb/Waiv9dfv/+1/LbP/+3LMv/lj//kegG//3x31zt1z//hen+8Wv55dv4z6/lt4anlWWGH6ZxffVtL+qav/k72svycrXJbcqVFnv1uOTjmNI/aP8zXh0HRMCg764A0CaBqF4YzDLIFYw1jwhAZIyPQVD7pUFU3+YS4CUUxNMCQb7p599/ECB//7d+uyy5vgLcDD9EQ+/+Wjx/3VoBhwER/yFf6bPQFRDV6yv6npnmfZRygMhlU4UgSqPFQBrOiMDwxfj+zN7Dz9z3AxG169vDZicytp6y0mMakv9bMznUei04kiolX8dlEcx4uhoRuAmtsj5MaR1EMgurmUQ6rntRO+1vlRJVUZLwUUyab5fLIsaav6kZK3ObkCnXSyFDub5uczhkPrOeiDtKcg4GdQCivyVcUx5gWe4FIg4NB8bNXcoPDBBNwd6rCUkH8hudSTo04emS2+iwL9lFHpdkRzbUltpHe45BxJ1R9l46KEaeOkSGqjucXHH9nYxP08us3vKtdURRDYgmZSKD14NHA2fk2Aiitp8iJT+HIFqWJX/X4c/ACAEvaW3V6HkdRGstqdV/rvJbMIgoXBx7u3Yc3pe3MrHV8a5017IOMvbRF//LvwxAxDEp6Al1WGZkojPGudotwBsYdGKT2yqeCNTjtqxMXM/Jbnll5s1sR0CRvrmOdGQsVMDwvYGS4cl65hYQ+Q0IZcwMIr1WITlUHeURm295I0LxKyBS9RPNhKejcekcZlbjg+jU56LiIxYGIKKZG3ZEGxOHVpCu9JiNX0I5eepKmmep50E0KZOAT/OXdwWQ20F0sydK/TJe4hYQCRCVsqRo2pCX9ZmB3IBowK+AqNII8DRQawu1hMCB8nIUuutbTarZS7tW2R+i1AfRCBzZ4Hm2HtHlLjKAtPFKCitt5DMgGrWlZRLAaP7yTssB2hx5IhrojpdKfZ3wRImMDDDN9HcCEa+1ep5iDxClfng+ebjd/2lwuE/mp6Wra6bD/jM/Svo+iBbuiDPEVDd3uBgj0XXDOWj4ICwDBt1rCynWynSHcI770e1nEnYSRLKh8O2Pn+rvRGpUOryEgkBYvYK8188KVP2Wyt745/m5NnN/9RqvbcuCo/0ubxq6bA8UBgITlGqHeA5AJBsGdRsyS8yd0x1rw5wEElk0tmBsFJYYQ7B5wM7LlNvQQjbgzy/m1kQs2+rfK6ZBJICjNQbcAAC8xGJmjF7/8daGXLxzd2M4R7K0vERGecKxlo/qiejKu4OHdUMQ5T6qGYFuwQo4lAbKDl1dQJoZW4xQrYW6Rs40Yv+Zrng9bnNCpi5/zSvzsf2hCaH2Q27+ijy21+4XMPyRwWeP8L0zkwNe0hrxdIv8tNBXwBBa2RE0JyEc3Qy/Xj/ovd2EKG3LxJXGdEWBBTCG7jHCOgMi3fkohwZCA3MaCBDN6SmoQgNdDQSIuqqJD6GBOQ0EiOb0FFShga4GAkRd1cSH0MCcBi4/fvxY4r/QQdjAx20gPNHcZBNUoYGuBgJEXdXEh9DAnAYCRHN6CqrQQFcDAaKuauJDaGBOAwGiOT0FVWigq4EAUVc18SE0MKeBANGcnp6Iiu4w2ZPdt3aPTnPD0+i3sn6A+g8NIn8vxuq7l6yD33dOT+MTzf1TynJTVZ+S1sbUO/0sd4o0bZV/Zxkr4yZdlsih5W8BRsAb0uRT5+6+kWr3mYsPDSI55t8Oer2G3Xzjwf495WQDOQKQ0QuwPC98lcHOyogfGdTardafyx4yWuO1sqVvqQ+6X9QnPWlQnZbG1hMwajrb9vP+emwQDa5B94w3G0kCT2fmxPV4Jtagy/W9IbWGgvkluj6IdpPRi5NzL2iAeII6+WAPyfSdHA5FbsD2mV8ZEMlFNnMxTV9iY02UC1Tqkp1W0pCPvlAHeNecY3wxDtGoxmjm9GEEh0Pa6HMdMlyaLbERY6P3tMzfXW5TYpUi5pc+e55SZS8ZhV999mWpNBKeDj1KB0RT/FVTz1JsQWRuIbb5ExJA0K1VfSGxgKy8RDcUW95tkhCU5MSpHnkEHuTGEJz3yQB0QECGQEDVMzgZOgoHnXSclMSDPFF1QLSbjF6SmcQik5MD0nlqLr/XempleMY3LYiK4VN3MyCG3qBNOoLqrL8jULnmU5KFJg+CHYjW62QgOHCUnAPaO4FBJxC5q9e6Tm68AwArWP4F+akE8zZsavuCDBPybGT0wgDemYTfF5kQ4DUvnkAa/dZQsJm8dPUnLH8ARAwaCeXkqax/HTCkSUPn8zAI3/y0eRD8OJBRyeCTUVjj7A1wCwbLS9Jb+bUPG9Kq4Up9kU1L3raNQ6mWbk5G3VYq90Bk6QSgjf6YrPXKqn4vAlAkz1jcCCIUXu3kiTrZfqaUrgcvl9uQQoxDb9PWcjVyb6Cp/TbsY4NEs7ETGPEjkh44nBcEHgLxbGV0ggiIVmUWz1R1IpyGAEpEehyk0gme20AEDX0nEHGeO7Pemh6AOstiY6rfG5YuvkcGirbSic57qIb7hjXR/jJ6abBuPBXL4cBGAFrpLwiPPfdn/L0NRCChYw7JUsh1azhX0m650C2tiYZrMhoWMerkXZpQxAHFDqQNzSCI4CzOxgb+aJsMTmTA/JIEzhPdRUbb01aWJIPzOCyHyJ84iG7X1jotf9v+s/7aCKKaZFHysSXwZCDtAKKkZLO9nsA5ASAaHAaDNwoJx8B7GVSaZcmYeoZA7+fCxNYAnaHmhi2ItAwil37q71tlLHyApyBeNoS0YBG9WhoKha0+sozOg5W2n7hgQPTE/YyuZQ1Y4O6rlHvy3lfSvbkFiPbW6MH5Zc9zD2+RvRzyuAdXyA7iBYh2UOJjsSCPYUO2W3tA60Mdxt7K8ZHqB4geabRC1kNqIEB0yGEJoR5JA5F3LvLuRd7BG20gPNEjTXkh6yE1ECA65LCEUI+kgQDRI41WyHpIDQSIDjksIdQjaSBA9EijFbIeUgMBokMOSwj1SBrYBUTmcl2n9zM0narx+jAaiNMOaChOC6LxiePe3Z7+9YekXHQi+tt3e9LZDAJfYquXA+sVisoPnUcbHfbcWUYlcHvujuTQ8rfHiSZoHvzc3WlBhC7aFXvp3dDkwd4jHxxdbfCX3OwZNALlRhDtKGPRRy5Y2dKr1AcNGuqTnjSoTktj68ndKk1n2z72r/OCiC/FoYw9PePNRpLyKnRmTlyPZ2KdjyHX94bUGgrml+j6nmg3Gb04nWv3hownn+FB1A5NkdswfIwfDYjKTVVJFKIu20mXDI1cynOX59Zo8nep6y/f6dx0/lsSwiU1MSKOvkkH+Ekzp5/pORzSRp/pyXBptsRGjI3e0zL/iesImF8SxvOUju0lo/Crz74slWYqx0IHRFP8VVNHKhoQJcM2OQ5ATgUCx3V5416Um6gKRPM09lp5Yrmee87nq0s5HkSe0TegduQReJCb0MJ5nwxABwRkCARUHeKQoSMP6CVE/IimA6LdZPSSoGQtnmZyckA6T6zye60nz/+4vw2IWjF9EhJvpFQjg6aAaIYmpZNLGU7F+KVlqms8S/pkcs9h/izJcr24iUBYw2frdbLhOnDAdFNg0Mno3TXqjkcbhjwsK+RXsv/YTYh9ZfTKavVEFPy+yOS9uufDE0ij38fOFORAxKCRUE6eYtXAMyU1GRDN0Egd4Su6dqFYyeOQ5agJTIr3u9R3lcXLQvXab0Kjn3a2J6NoDBx6p9YbWF51t856tTt5ol1l1BpK5R6ILJ2AvtEfk7VeWdWH8qvvBy4qEDGAikdJUjtPNAOQGZoVEHls9fRH3gx5NPF0+Jvhpwcvl9uQQoxDb+XWcp19PYhSO23YxwaJZmMjmICw8q+fewB2XhB4iDkZa0tUmpWZ6UBSmCGAUiN6HHzzB/9dQQSN34GokxvOeKIpGjbyBi2jUK2jSSg3046+FXZ1lm0NPhHV76WKFFx8jwwUbaULKK2HEqb1Cfnlzx5E+8tYpaAS1o2nYjncBEEAWtmNBOGx537U3xVEW3LKqbVM8QbKg9G7ut7p0jQgko0FF4rp3HOprOvp9dLo22AExKiTd2lCEQcUy8aGZtjokWHxu8hZV9SJdVc+H7qgQNRuHaOcciXE4/VS2s3LaxQFohmaDCwNBqWmuubB/7xKASXLoNmMvqkmXJHB0A1DUEhFLGiWpe89Q6D3c2GiBnGPn9/i1jK4juWf+nuPZ0/Gwg94CqpjQ0jrXUWvloZCYauPLKPzYKXtgxcsiA4ubIj3lRrwIeSestyT955yYl4BIqyXeAs0kD3PPbxF9nJ9bw9EOdSrANGhhuPowpDHsCHbrTLT+lCHsbdy/Oz6AaLP1ni093QaCBA93ZBGhz5bA5F37sacYz+i/unz1oUn+uxpK9p7Og0EiJ5uSKNDn62BANFnazzaezoNBIiebkijQ5+tgQDRZ2s82ns6DQSInm5Io0OfrYFJEKG7Rp8tqm0vHzQ1h17t9+f+tfXkwOOfCjjyeAaI0ujwhbB60c5eieidfPanqe1A9687JDp0AnqYo04x92fY6JR2e1LaHM958PNpqvuHK06C6HBy2yvpN4gnBmgMji/iyXmuD4GIjXaPHHW2e61XmbtGsNV72VbjV18D5wZRNvSVG5fFa6BTxv0j/Nmw98hR58cOXGGfAxFfVW8Sp/gG4vdWDSgQ0dXsXnIQvwZJv8uFPEloom68iiD+gp1JyZWI+Aq3bldfshM+5rKd5Kvza6J8y5Uv8iWZ/Hdhlp8cbk0c7d/uifSsj4GGeWJaLTaqNwsiVFfzjvLHNKBAZBkg0GijLEZdLL7dfCAA6aveiUb9ZqMvLJII/E6Djdqq180LMBVI6F2lKbdrFY3tIRnsM+R/yyAqSUlobSShqOlz9rz2Rqn5Hj8+pAEMomzIytglO48ySA+y3LqpR6DSYLASMugMgojCggYnL7HtE03DyshjWx9vClhamsHbhbtsRFiDZQ+nwyZgvJCnrmNF4F+AN6AT3lauuoFi13+AQbzapAEAIg7rnEVao+1k69HZdXQZitQx/ESrjb/Dx8gDQsIaHtrJoIpyJ08EUz+1YZoPrcTwxwY+B6LURxjiQdmqRqL0MQ00ILJeoDI1RiueyQFN1jf5dcf4C8fR9wwiDs06dEaeDk1pCxbusyYSMIiXss+6OeFBlESEhm9kn5eZQrzaXmYTIDLa3OuHBdHAGI3RCohUeJcF0h6kk3+uCo49Xvpu2yI6HxbO0NS2cEkMfjz7y990nEFmlt7DDDyF2wlEIEI56rzk60BLNTpgA2Gl5x+/t2tAgai/RklsrdHy77QDVrxRC4q1jQXZICgsqKGcBli/y22rnT/6bXff2ray0HM7dI+c/y15F7fD2JscIHC320zUcBqoIGIvVNcStFUsHgCC6PrG/4oDzg+X2hKgCF/hV+TI3kttS4P82mWnjbfSE4/M13lC35beTSztgYIYnQ699KK8b3zWE8EQSrWnv/d40vvBDlrjTdjrmN055DVnwkUlbBSnNVBBNF2FCDOotLvYWD/IP6oBC9x5Lh+tN9/CWSkDRA848tlbuRButRvZg2EPtVo3CIYaCBAN1XPUj+RV1jZEqvQU8ukQtX6L0q0a+DCIbm046ocGnkUDAaJnGcnox5dpIPLORd640+eNuzV3YHiiL5u/ouFn0UCA6FlGMvrxZRoIEH2Z6qPhZ9FAgOhZRjL68WUaCBB9meqj4WfRQIDoWUYy+vFlGtgAIj7l7Q59fpnkp25464mFGWXFqYYZLSGaLwfR+H4Mn1Burk3Xk8vo6AudhPbXuQcno/my2q2nuK2Cd5ZRMW/PzhGotPytXiZo4nyd0vJ8cQOIAFNzCQ98n3mVB66Ttqp3E5MHe4+cbnQ9wbdvZ2UCJTq8SYYJz6TtKKNVo5UtfUt90KChPulJg+q0NLae5J3QdLbt+IU08PUgWniGbLxN/0ZpNpJE35k5sdGDdkYAVtrC/BJBH0S7yajkyMU8sWiAeIKakASCW8h5gvI0RW6hi+eqBhoQ+Ytt+hKdvphXbpeWnHOUh47e69RVJIOu66WimdPP9BwONeAiw6XZEhsxNnpPy/wnrhRgfqkXnqf0bC8ZhV999mWpNJIWeehROiCa4q+aiuKyGBARgHR2nLSZUH83QEDhHMrTgN5p7SOPsBLK/c31MwAdEJAhEFD1DE6G/gx557Qqu/kVLBF7cR/OLfxe68lXjN9eAwpEtPumPY8nngLR0uZqIHC23qnyb71OBoIDRzEQ7Z0yAO2gE4jcxoKukxvueZEqlZQgP3Ud24ZEbV8o7PyIjCKBPAHv/InfF5m8V5f68uQJpNFvDQWHXkzYxDNroIJozVuAZCUmP5xSqAVNCypFWorWe5BRWOPsDXALBstL1lZ+1r2TJ4Ie9KMyFvVwoQciSyegb/THZK1XVvWh/Op7FBsN3AVEi06XNQHOLJUevFy2M3eiEePQW7m1XGdfD6JUtw372CDRbOzUhPgRSQ8czgsCD4F4tjI6QXqpsDyZ0H2vOhGSIYASkR4HqRTPoQYqiLThd6rMhXNUWWjfXl9W0lZJY3WWxcZUv0uN8nRrKmSgKKcb0XkPVbiWAuSXv3oQ7S9jEYILWDeeCk8QBKCV/oLw2HOP31YDCkSS3qpuJFCqqvpbgPEuPEZeRqXCGq2zhFV6ilEn79KEIg4oup7skskmATZ6ZFj87pHzzuUdQudxWFdah6LbtbUO1p3VdvyyGjAgSp9mt7iFTQYWb3PbDFq8FoJ55KS2f/I6pRuGOGNR1WmWpe89Q6D3c2Fia4CobeuJtAxKtFLU37fKWJgAT0G8bAhpwSJ6tTQUClt9ZBknQtwiTxTsFve++mAQxVm7fdXa/dvUHs3YSWEPjmfg0Xii3To9CvV2a+ScjLLnuYe3yF4Oedxz6nm213cDEYV5o78NzYoYdK0GyGPYkK2l2vaG1oc6jN1W/7zUdwPReVUaPT+bBgJEZxvx6O/uGoi8c5F3LvLO3WgD4Yl2n5eC4dk0ECA624hHf3fXQIBod5UGw7NpIEB0thGP/u6ugQDR7ioNhmfTQIDobCMe/d1dAwZEzSnt3ZvbyjDO323V2Hnpv+4Ux0lBJCfM9b9a7sr2SPqn2ub4JDVf32iuu/evdSTh0Unvb9/tCW7TSb6cVy892uspvVPoci0FHx/aWUYlcPc8IV8LkWsyqkop0ul6dcJd63biPOFxQISSnpRu3rnwlW2jrvHAw7NxvZunPNiRi08UWgGbJwINDCGRG8DDw7zrHi5AlBR6NBDxdQc0e/Y8QJ5Nk6F0Zk5cjwzEtDMCcDE+8WzoxDfxRJ5oNxmVHLkI0glQf5On7XnuUR9sA0Vu+7r8WgcRX2m4qPxyKNIZXeZLrenLe5mXYtJ8u1AOu1LP30makCnzvL7ZS4aej6ihAyKSqz2Jnt8zr1RON3dt/9s6BFQVMvZkYZkoxPBG2jMIPVtiIx6BqBo88x/OzCQg5pe+4fblPXlXTIN5YloZuvTE9YSipzN6X/su9O1zzN/lndPGkVll47osyt551q5GnujIgOo1cnSt3FwRR3eNRoasDW5SJgLAZbkU4d+WqwKnUVWn7QXJ6d617bSbIaQfDayWxsiTfiCPsBLKRS6+RosLTLOWyRicf/xcfiuJZNK6CKwT81iA99zcwBPxQBcjrAKS4YhREJ0BSSXtlADvjiFbYIN63IKViT2fk93yUqJ12qbJQANRJgzpO7ejQZ7YGn4EXieKo1GylGI7g+YZsfESLd3H89ytz/oiHs3OajFuDNFuQkBDBoYJecK1jEiRnqD/+nP3O/X1m9En8/LpCXqTF7czAFFn8FNFbSRuZjbylx9s/Cok9CGd4VnqeSOdlEnCR2e520HkQdOCOPN07RgPxvrR4XAta++tOs1FG0bQADfhBxzgFgyWl4RAPvMPG9aq4Up9H24mwdu2cRqulm5ORq+n20DU6HNLBMCi9EE0AkcGEc/GI7rcCBuema1bY5wC0agtLdOOIFrLoTcLIo8zbwrwtwZILrchBZy9i1eoRu4NNLWX111oJjbvoGSDdUgPHD2vtVVGLw+DqCtzD2StnJmz1rk0hd7Jt2W4JqJZv64pai07oxNdN5yDhv9BEHFuvHWZ2IM5y7Vy1/70ACwUUg/l0JNvJY1YqqQ99UQ+P2mnfVYDaA0+UdfvTV03oyIQoXWXgBJur6tGIL/83Rvn/jIqMXIR60aoeu3zew8+EGai8Fi4p2ffE5UNA7yxoO1zvLHQgjEbXgrtLJPl5eLaEo+ivJjsgumqZLS2bm7DEPnQUKnBGL16L8X8nXbW/GTR9qXtb6sfBprqlzTln2LUkYvv1/LLK4d/9wGdCHogQps3NAGYLf/V3b8VEGUZlQFRLI/jeDFuifeNsbE3km8JPF0jdznsMp03tgmZuvw9r9TJNRBJkn6QQ0/aMf0HbZjvqY+Ahm3CPXhg/WJXwjHwXhjobfKeodH7uTBRrx96/PyaSMsgcumn/t7j2ZOx8AHeg+qgELKGj6l+QwfWg2NP50BUhIqC0wBa1xGJgMhViJ+fqgEfQu7Z+DpvE87t2fRT8YLrOuphgOgYI509il/f7CFa9nLWe3m2ASKvEfA7A+VS/zakSQJEWhtfWSaPsbYhsk1CWk/pMBbVDxAhrcS70MAGDQSINigrSEMDSAORd+7GnGM/ov7p89aFJ0JTS7wLDWzQQIBog7KCNDSANPB/phOfGG7oqHQAAAAASUVORK5CYII=;" vertex="1" parent="1">
          <mxGeometry x="80" y="50" width="163.67" height="130" as="geometry" />
        </mxCell>
        <mxCell id="egsPrMgl1LdYm7Axs7Or-103" style="edgeStyle=orthogonalEdgeStyle;rounded=0;orthogonalLoop=1;jettySize=auto;html=1;entryX=1.018;entryY=0.182;entryDx=0;entryDy=0;entryPerimeter=0;" edge="1" parent="1" target="egsPrMgl1LdYm7Axs7Or-81">
          <mxGeometry relative="1" as="geometry">
            <mxPoint x="560" y="326" as="sourcePoint" />
          </mxGeometry>
        </mxCell>
        <mxCell id="egsPrMgl1LdYm7Axs7Or-89" value="" style="shape=image;verticalLabelPosition=bottom;labelBackgroundColor=#ffffff;verticalAlign=top;aspect=fixed;imageAspect=0;image=data:image/png,iVBORw0KGgoAAAANSUhEUgAAANoAAABKCAYAAADde0qYAAAMhElEQVR4Ae1du64bOQz1d7nOt0z6fMUC2/gjUuQL3Gyb1AssUgRwl26BtFtrocfhQ6I048e9scYMcDHjkURSRzwiR7aUQ/B/joAj8OYIHN5cgytwBByB4ERzJ3AE3gEBJ9o7gOwqHAFBtEs4HQ/hcKj/jmE5XV4DqcspHFP/j+FVuvwaA/v7e7mBaJl4x5153nkpE8py5lFwojEWfvdQBEyiMakugRzysAThkg814ncIo35Jov0OQ1znSyCwQrQQwnkp6aQm2uW0lDSrRLzlHGSCeTmfwpFS0WNYzrI0hHH7c1hiCnc8hfMZepawWFEoRFnHbGMhzSW2Id2w71Ts66TIsW0norXyYjot+wuZSzhfzmERuo8L9GZ/WsPlJbzuBTu5QrRLOMG5j+wwFA3q9znUIYct6Vmqx0RdbR8K0ZT8JZEuv0OyrBDg5IeQeWa1lWki11fvox2iEYmVLVJe9JqOTLQpEwAT2cblBf3vZbpsEk05YHIWsThAJJLP4NzlGaLgsRDicg4nujcWHGIUUHrw+RAOKlLyc/iuFXEv53O4iAAao2fqEyaCFKhrsqTQWC2GsD5Op0UEPQADQbTYz6RbpN3QO8LlZVzuNTu6gWgx7RPgwFkwW1fXXJcdNDr4kZxPpqJyVud73R6OzPopGhaj6s+pZkrfSjop7YPDbyUa9VVG0KiB+5fNYKIVs7LBaE96uV2DC3fR73aIgEk0zN6cNgmHh/NIBxb37GiXcFbvcVW0E21kBM3t4ZBCL8CH/ui8ZnRFxGTyknxy+PjquSGiQVezEAT7kK5uJVrsRAcX9M+vu0RgSDT17gEGWc5dQxMXIyjlYydMBN7SniKGQTRRtiwlagkCUSqJVDVlhDemjmTrIWDyiV3lCQiRjvsImBIkICrsG+FSY+ifd4XACtFkqsdOT9GgiUrF8eBgVTmccLW9IJP19V3dXpLAXnAo0QsOr8giIhsRa0tfJfm2E42iq8AGuOzKs7wzCoF1oskVNfKI+KJ/VMv72YF4ho/l5FTHenl/rT1SM3Z4ZbUiMnRyjbQcT44cl+JP9HUBr5HEFVW2sR9t61Qvfu3Q9ge/qiGIojmwkwie+93Hhfvgd/tCQBBtXx3z3jgCz4SAE+2ZRsNt2S0CTrTdDq137JkQcKI902i4LbtFwIm226H1jj0TAgdaAaNVOuOLXi/jFVTHwrG4xQeeifVuiyOwVwQ8ddzryHq/ngoBJ9pTDYcbs1cEnGh7HVnv11Mh4ER7quFwY/aKgBNtryPr/XoqBK4iWvrVPP1A9qn64cY4Ak+NwPMSLf3yXf96n/eB6e/61DaZHtz//AgfPv0dvvwrKqRnX8OHTz/CN/E43/4Kf3z6Gj7+9V8I4b/w5c9Yb/D3+Vdq9vOvv+16f/4MP2sd//4MHxuZ2pYt8uw6VV9r3XKXufpe6Cj2EuZGtC1Jb00ox0/I7UJSCW8dqr+rxXjdJlfqmOd+QqJV22Kwh2wt0hpEUw5aiMJDJ4nGT9OdIQs1skxNFpTJ67fPmbR//COfhpDaC1JukWfVyc++hlq+1EaOrojW7t2jekQ0QaIu7qJOJb9PNNGmK1f2YJ77+YkWsS5kwwCa8BvkgIN+SVGojgBvR7Sst9ZnWp2JZ0Zcro9+6Kic7f/QTCDcriVQhBLHC+KYhvbYB84sqkmPRcdBoZOve+NS698mVymZ5kNDNO5sntkkSAmYaqYhsDBr0axXMEDEKeWqeFTWTR3twc122GXJkgHRviE1FJEkhLciWklDBwSQ3mOTSNYoUbAh48D+0pzGTg0KNt12iIbNrHQCmLaFP11JtM1yWcNMd4pomWTyvSiCxZ9rosXPkoiILDxuedC4TpQHMozKsDuZdUdQs31or2FubdflYUi0EHK5TLUGjmrIgrZVYpT3svzuh1b966q8YBMtp6bjqNkSLe4mx65zxp7rLfRexmPcs/0aol0jt6fvuZ8LomVgmBSt4TXR2hoFXBqFmkyyxajseqLlYwPYOaSmdG+Qo3bi7Jx4v7qHaPWiiXD4QjT57pTtEG1EZG3K0uKJkEdEE+1jnQ0RkwiEbEReaQxF6ijKRXEDdX7ARKsXQ9DW0o+yjtBpHzPRSho36mhLtA6YQginoi0JRmUWcd40osUhVNHmHqKBrIZfKB1teSJ7Q7SBPCIa1wE5JZlbTTaB2vNQRL3lzMf0NUfw1Ro6vnGwU1ImnZ2x1NJn+3wH0QqQ6p2tPBNEAyAjIM2yd31Hg5VIw2LEeCOilXe/XsR5BNFib2o53EO+I9yN8eJammjy8Nh4inT/HxOtlyVp/TnDSdFvKLev8ZlLmGjliLceKLETCRgQy4yAfaIlEMw2BZ667BqilbYj21ff0WiUMsE+fP4hvkejwnxjpKGoUaejeC6vuY5O/1BeE2S7PI5oSVayUb5zQgNftaPz8/quqUcLFxyd6ja3rDrSqWEi6rVy53wiiIbFBpniReLwZ0U0nL0oZh9zQES5SgfjYPXKIpZbiVZIFv/nGT5KzhgMgxxdJy5OGr+gNhctDFnQ2JWJCunKX4Dr9K48vzN1zKpaWcoETJzxvUuOQ12pU4/GuptCXhvRsuJ1uYaBEzxSRIv28nvThuV9ODlekpHDi4Fj4LI8USTy/basT7RcV75gS5ldzA1yjEiRIsunTkQwZEFvllktTMTFCUEe1MVKp/rFSVVvi7xeP/JzO3JGG2hsVgC0662lercRbXtqSihOcdMQbQqr3UhHYDIEnGiTDZibOycCTrQ5x82tngwBJ9pkA+bmzomAE23OcXOrJ0Pg8P379+B/joH7wNv6gEe0yWZGN3dOBJxoc46bWz0ZAk60yQbMzZ0TASfanOPmVk+GgBNtsgFzc+dEwIk257i51ZMh4ESbbMDc3DkRcKKtjVt3u067i2C4Hw56rF/+p2fxF//VnrLURm5A5e016hf/8mzIcoTBll/9wyTsLNcytS1b5Nl1+rsHoJ92B2AXSLru63zJ9yWa4bQA+2mvhs3mkQrYMnTzvriytaY560MSrULJIm2pkp1ek6VqnT72tgOl9mLLzhZ5Vp38rLPdqBhkE61MZAJPqkfbengrTn8/oqijiMwHS90m10Kz/8yJ1scml2wlWqx9505vP1+Sj0bY2/mSDdH6Gz/LzECzCfzwENRsgpm9zB6oTrOGmFVUqlW1ixs70RZcSDKWs96cihkvEaKdBdFWbpNPm0bRrlSAbLIT5dcQjTZTDg6YMaIQRwJrV/RbRbSiq4mghJi6YRvVY/XBrjOwv7QmzNWA88ZSPFb1aLz5BABlDH3giKb8jcqrDbCb5QoBG24V0TLJpOHRSHzeQrT6CLnYRjid4bTJxtI5ACqfSXAU0LkSnTPI2/FrG7BrXNiBU3RBJiKIsa3fsNlMHQvYLYalAJch0fx8yQzT/s6XFETLRJKODd9A50/H1hGT85PDtk6uZBhOS4e4KJblVplYTBCtS9Qh/dazbFMjvrKl1kV2V/Xi8xHRrCMYSFa8WSMaTrCihZFBRDBkQRfejfQCh1iY8PMlKWPKY68Xtxp/AbA3XploJXXrK9gS0eCE0WhEQmGZ4bQ4I8LUW9W/iWhGSsrnjbCNSbZlRGVD7M2IaHdHtKhAnf14D9EGiyFKhxijcvuI07hAdn0AUavLcvS9nS/5cKIBRgaPI5I5248Inpyc299DNItDsDVeH0W03G+2WepI90YUst5t8rMYgd6IaH6+JA0N+WpykpwBpcl4zWlIwvoNE23ruY6Vcsv5SW1NIiM6IKLxOxa11udIggzDNDG31TatpLNFXWpT9S0VGTZ3I1rpbz/93pY6ZpMywfx8yTJAGP+4mIZxSmOTUz484tq4K5nYgZfzUYKrJlpSFJD19OWi9barIBpSIk6n8vsTf67TIjIQzh87Li2rnbQmXrExy61WGQuIWly1wgnwob/I00Sz+lXAFO3uJlrpm1qBtcZgY0RLTVPd/P2any9ZrQ7KsU4r2b0s4gaiwa+Gcq3B7T9TRIvV4PRgtJ6d2ehYHstS/dphxRK+JEqUT+Ssl+/F7JR1M8Fhfk0gkif0957V/aoJcT3R9MtztLnuK+xW12uIRgsjnS98DVnQhfcjvRji50sCH3kln1QD+NgUsiGaNMDvHQFH4DEIONEeg6NLcQSGCDjRhvB4oSPwGAScaI/B0aU4AkMEnGhDeLzQEXgMAn6uo59r6ed6voMPeER7zITlUhyBIQJOtCE8XugIPAYBJ9pjcHQpjsAQASfaEB4vdAQeg4AT7TE4uhRHYIjA//6zqhQpfqsKAAAAAElFTkSuQmCC;" vertex="1" parent="1">
          <mxGeometry x="570" y="296.44" width="176.76" height="60" as="geometry" />
        </mxCell>
        <mxCell id="egsPrMgl1LdYm7Axs7Or-101" style="edgeStyle=orthogonalEdgeStyle;rounded=0;orthogonalLoop=1;jettySize=auto;html=1;entryX=1;entryY=0.25;entryDx=0;entryDy=0;exitX=0;exitY=0.5;exitDx=0;exitDy=0;" edge="1" parent="1" source="egsPrMgl1LdYm7Axs7Or-81" target="egsPrMgl1LdYm7Axs7Or-80">
          <mxGeometry relative="1" as="geometry">
            <mxPoint x="230" y="230" as="targetPoint" />
            <mxPoint x="320" y="345" as="sourcePoint" />
            <Array as="points">
              <mxPoint x="270" y="345" />
              <mxPoint x="270" y="78" />
            </Array>
          </mxGeometry>
        </mxCell>
        <mxCell id="egsPrMgl1LdYm7Axs7Or-90" value="" style="shape=image;verticalLabelPosition=bottom;labelBackgroundColor=#ffffff;verticalAlign=top;aspect=fixed;imageAspect=0;image=data:image/png,iVBORw0KGgoAAAANSUhEUgAAAL4AAADXCAYAAACkj+sPAAAex0lEQVR4Ae1dva4ctw7e59raz7Lp/RQG0uxDuMgTnCatXQcIUhg4nbsAaW+tC4k/IilKo5ndPd6ZZQBnNKM/6tMnDjUr8pxS/BcIvCACpxcccww5EEjriP9+TefTKZ1O53R9D/QCgf0iYIj/nt7fLul8zuTGf+dzurwhy4P4+53pkFwhIIj/nq6S8ER8qeGD+Aq8uNkvAkz89+uZtfz5+pbIknl/f0uXM5o2Qfz9znRIrhBA4r+lC2n4y5sqoG4c4jem0emUzpcrL5xc//3tKswnYTot5JW61wvuK8D0Ol/qolxqW8keN4GAQACIz4Q+pRHvE5ejza1YMLRw6EoNcR2xbzhdUlleo7yU0ttF1hHpMy6shfpinJEMBBQChvhEaFWm3jDRarn3t7f0TnZR1uDXC5hMRM43uieyv6XrGdOjPKevlM0uuecY1a9SRyoQaBAwxF+r8YutUvYA/BWIND4RPxFZ0VTJpOeFMsgjUlN75govlEH9ZqjxIBCoCNxm47NWFmYIEZSJnzt7T2/KVq9vjG7eFPGX2q4DjVQgIBFA4mt7+nJ9r5vT0VcdIieZLh1Tp25I6yfTc/4FLP9mwJtVk8eLSi4SKXrZBPTrm6JxGwhIBJj4yZgk2nRB8lky8v1A49PioDcBXoupMsobbW5pc7xQXw400oGAREAQPz9+T2+Xs/p8eFr45bZ8zmRSn9PleoUNKJs60CYvJNke9ufndeQpfeHmeLG+HGqkA4GKgCF+zYhUIHBkBIL4R57dGFsXgSB+F5rIODICQfwjz26MrYtAEL8LTWQcGYETf1HhLzPOp8nI45OrgddB+HHkVR1jCwR6CISp00Mmnh8agSD+oac3BtdDIIjfQyaeHxqBIP6hpzcG10MgiN9DJp4fGoFp4hc3QD54dmhMYnAvgMBzEr8cN9bn8GUUCPktvZzrX5qov3+kT5//Sn/8KwqWZ9/Sp88/0nfxGJL/pS+fv6Xf/vxfSul/6Y/fc7nBv6//lWo///zLL/f7z/TT9vHvz/Rb06aWZaY9v4wZq+27e+T7LPwboBL7PZMPdXlcPd+m8Hf6/9WPdkZ8Oo6MsJE/wNKbyCG+IgwSt06GJH59WlJOW1QC2tTkpTx5/f4VFtGXv+XTlEp9sUhm2vPKwLNvybYve2NCez9OCjy5HBO/OgydRDnZ9h7S+yZ+RhjJP9Q8DlmJMH8ULW015OOID/3a/nyqkIztG6mW98uA/J+aBV3rtYQWgQJO1ffalqtvXqOEatO7SCni10HBz9KSTAUAs8IZFNIarBVw7KSRMV9lj/K6po4PNsjh5xVJBsT/TqaM0LQpPYr4aDYNCClZ45NalsC3RGOuDeTH6jx3alKqCUOPVTn2eNNmqJZoH3dMfCC9HFB+pdX7AoAgfr6XC4M0LwFGroy1TG6PyAkA+3ngS2sD04J8VF+D28qu89OQ+ClBvjQNBsRx2qLeFomKdj3sHahW/7rYXvKJD6bU+K2iCF1EyAEBKJqemfesuC4XDjpW57gv+7PnIPHBbqtEbMW2xG9LoO3HqFhyyxqjvPXEz07rdqHI3haJn1ICspB9fgvx7SZYEBCJL21vILeoI948TV7ZDIv2mPiifi4z8UZh4tPbWl55DnUQAvqoILIVzHu6AeKj2TEaUEt8JLoErGiGGoKwmk5VgxA4ozyPyA/V+FkopY1vIT4tHhqpuKo+xHNMlsXXEH/QHhO/lqHFIhdX25NPaOVfjZV4gVzeRGQ7/83r9fOszzYSH0kvTJ/sqF6iLTurh8Gj6AgCDTfP0eAj4kMbg8lwzBPPjIBnWaM+iPi4d+hp5HsQP0Nr2xFwc5Jxd+aLC8nPnqVc3QOcFurJNp4xjabOgulBABDR3TdEn/hl4G4dhMTmrSE+1h2ZaTOmDkgChP/09Yf4jm+mzVlEVMJbTJRH17q46Em9WsLOt1c1fmmtyCj3LLUPSm0jPpmh8PFjz9xH4udPWXljI02STOR6X4Ai4lMMHjHyBshMXpGvzJdRXp6ZWeIj6Re/Jztk7ZIKSZN/sHI3oU5bRKZum1SgXOsPYtocwec3mjrQVduWEoEUmTFNbZl838yrfOa8wb02nvEZEz8LV+3uic+ZRDqy8ckGFGRn0LCMyKqAOnl94rfeP7LNLsAOWUckLZr3c0djOm1Rv9Cm2WjmzaYgM5WlL0nqF2FTbqa93jjgud4Ic9+SvAsA8hyqcvs3eRTxJTCRDgSOjEAQ/8izG2PrIhDE70ITGUdGIIh/5NmNsXURCOJ3oYmMIyNw+ueff1L8CwxejQOh8Y+s1mJsXQSC+F1oIuPICATxjzy7MbYuAkH8LjSRcWQEgvhHnt0YWxeBIH4Xmsg4MgJB/CPPboyti8DzEL97FLk9kTk8e09D9U5Rlmf59KQ5v17qSOeTenRYnZ6UcXDQvW/mBCWJRF5euk0ty0x7fpn+SUzoH/0l6DStuBKeSycxqRyPZ8eJSnyHeB86Lqd/1+uKjkOzb0BHSof4ijCNX6okvmnTaYtKQJuavJQnr72jzqW+OI48055XBp51jlIXQbYQX9RZwlsOdgfp/RE/g3qj19VrxtKpJO5pbqvxq3/GwK1zByT3RCzE5wGb1x88bwddnqMGyOkMZAUpmyZtHXAuEWaL1SCzGh9H0ZONB+lo6aopPQ+lR2l87Kt5w7CkKlFlVI/VjV9mIH+pvZL4ZT7yfFUvPCXEzm/GGh81q3K+Mc+AgDnuCkVXQIAFsVuTpS3T97pyFhF7iw0mZUj8V4yls4b4x4qh463RMfGdyAmWxFL7cwdKe4ObGq8LKqTKFF+4RrvYvqhqudr6KpOIrTd8VlOC3U32+UBjOouIuoM2rbuh6PdpYulU4lN8HLrS3LASE29+yqPxHuW6QHzywyWti+AJNApY4r4AI98KmCaQ9VVobIfII+JDnqhvZ8QhqyU+fWUBp/JbiE+Lxwph4/W0+feIrECLTzuv275WEJ/8p8sCoLm37e37fpH4KhSgJDSOe5b4dm00sK0kPminwaTMEJ8DMmUN/SDiP00snUr8uc3t/h3KG46JBxPExxAT5yvEVhS2e26nENA80/b6csyeIs8a4uMC7E1gaW+S+BQg9vixdNYSn8xP+CCxqLgEqfaQrMR3tDkPoJASALBkA80rN7eoKQRSrlmS25QLZpb4ZDrJuiyoSEwTn/YDYKcfN5bOBuKTYjugyVOJrwZZ46MDlQi01qYmUwfIjZ8rHVKq/AykLdMlPra5dsO1hvgUdu/QsXRoDk2Ua6ErWiWWM49p8ijiCwxMEkGzZKXFIrS7qRi3gcBTIjBH/IEZRBr/KUcXQgUCHQSmiA+vQP8LShC/g2w8fmoEpoj/1CMI4QKBDQgE8TeAFlX2j0DE1Ym4Qi8ZVyk0/v6VV4xgAwJB/A2gRZX9IxDE3/8cxgg2IBDE3wBaVNk/AkH8/c9hjGADAkH8DaBFlf0jgMTvn8XZ/xBjBIFAi0AQv8WkfbLi5Kg9tt02RseghXtiLlROk0bMH+2hV0+SLp0cncJdTMbjTB2HLKLfxyQf1afTLhyzNueXbvYVQN/dJiLDo7zDYBpeMeZPEH9mCc4SP7eF5B9qoIGvQMT8eXdnxGr86t9hlI9bu33IxC8Ni/P2dOqyduA4j5CGQycROpbPQgrnESICtctlSp+4x6AGUM5SRsiUHyt5Ts6r0OmzNGdkza9U0x24UUpHa+p7DfHJR8GLLUT4D4j/PUXMH4JJXpkvedLKfGQHpdYxStYZpcfEzyRidljfWXufyStWn0OWLIgaAEs2R3wgvRxsrifuO30SUDwUECRl8tOC7MtWhG5ABlnEeHkstDiFXCKvJIfEr/Z+jZrwIFMHQ5+47pZWZnbMH0SU6JQBU8rsaVT7OP9mPmSRypv7xPwZE18xxTqWW+JLMX2y5BIwAEuYGeJDGUlU0yNqAks4v21PFl82fywj4mtn+0ZK3MhqItjQJxHzB1xOiYJMfPFGpzwH4cVHNxCfNFvnldPRvmUAjcQ+OUtZMjfQVGmqyiG6fcICdeuZ8r5s64nfvpmkkKTRx8SPmD8d4ktTdGROGsjt7U3Ep8bqahSa3JBKlW1Y+EDijxZMkbHKfC/iAx61XRo7X5dMHSwIb4G8QB5k6rxwzJ+7EL/MkyXYKuKjCWQWRCEQaXz09l9v6oDGr3sVpl8TE+guxEcchnJOEj9i/pi5knvOwi/9Vqill1PbiZ87lkS1RLcLAWXpkcuaB6A19ZckWyaV2J7Cpu/0CfXMVxwETg9BbuYFeHZs/HXJaHXsvwmdIpoqyWnik1kUMX+YD2LC+NkGk2c78XmjCquu+3kQNyMkb4/4QOLaVtaYhbCs8YE9RGL6hc9q1gqGT3Sq530K68rWJX6Vl9qlcVquq/s1xI+YPwU6nlcFML7N5ZtAAd2/YeL3i0ROIHA8BIL4x5vTGNEEAkH8CZCiyPEQCOIfb05jRBMIBPEnQIoix0Mg4upEXJ2Iq3O8dR0jCgR8BMLU8XGJpwdHIIh/8AmO4fkIBPF9XOLpwREI4h98gmN4PgJBfB+XeHpwBJj45RCQORD2a8eOZ/SfSqZfi0j0fj8EXpf4K05c2hOgLvzOicuIldOeXs2nWAnPpROXVM7F+8aHz0F8h4Q3jmu5utMnHHm+9xn7iJVDR7bpSoRuiY9v+XzM+MFv+iC+COPiEj8voRu9qiJWjgBZqCRL/OprYZSPqHOv5Jj45FGEziR5xSo/AJSiCgyvNlrRJCQPkNoRjTR59lVoV/6ETKXNy5uOwWPbmdX4OAiQczAhjqlTIydErBzigrzy3Gc+lPnI/BEedbLwndN94qMggqMsnCQ2kF4Km19X9T4PTpYn7dm2W+vQGAswkrCTMilAS2NOKJSVxG/HSVLidUj86kIYsXIqbnWe7hMrp7a8nOoQ3496kJsDYUnzQTlF7MU+nbYdEnJfTHynHvalZZpxXF8fMiRi5eBe5XNvz2InHueL3vLiSkqPie/k2dbufd8h/mQsGjQ7aCC+cB0AZKUp4k/KRItTtk/PeBGtJ/7NGj+DoyKXPShkiOqjnZESqOr3n+knZlVzrC1LT2wZuP+W6tuLSsprZ96FuczEv1OsHNn7Uton/ojQhaSo8UflSs84eEm4EhnBRDOYIf6oLykTkfzOxLdvlQbYJVMHKwBpIlZOhkMSP2H4mPLlx8xdg/UdHvjEJyEcAYqwTGTHdpZCuWTFxSDbniH+tEwPMHVwHEOTbpL4ESunEkQTn97C8IFE0qPWuF+qQ/waHlAJUAiqv+y0JkAmNm1UYWHI+DvNYPNY3AWCBOZFNi9T6UMJ3rbl2ewwFtq/IMgo2+J35Wni143up8/fkhuw1WmLptyaHfRcX/Er0mdrjrRfl2ba88u0bWkZqqnTUxgeF/jZhlg5uv/xXZf4pRoSnX546H1qAsLUX+nUQIk4tIEhe84jJpahrAKCIP6sTLcRv46Dxk3yDKF0yOoTBlrp/TGGkuu0RX1Dm2ajmTecwm6nsvWXY1HelJtprzcOeK5jgHLfZNKKz9M1D1JMcgUwKsvMBfXc1r7tnol/WzNROxDYFwJB/H3NV0h7JwSC+HcCMprZFwJB/H3NV0h7JwSC+HcCMprZFwIRVyfi6kRcnX2t2ZA2ENiOQJg627GLmjtGIIi/48kL0bcjEMTfjl3U3DECQfwdT16Ivh2BIP527KLmjhG4A/G9M/c7RuQwooOjy9hZRA4WTlu6p0VlsYOkd0F86zWkscfjsV//048TPm+O5kIx/1Ri76Rh9Z7KR4npnyRJ7wQjnb+XZaugd5axNpyKPHQSE72ySG575cVRToX+SN9FO0dN3oH4HwBNmRB7thz7xUnlySNxcBK/fP2WPjWLIgExPutJpsVg2/KPEGsNuYn4d5SRhg1XLZvOq3etzGvfErWtvaX2QfzBn55vJw+moJA1E76jxfx6MPFqoYwWnZhtv71coO9bezcZhRwlWZTB4O1VCjljpb+p6ygK28Xe75n42SkgO5BopxLtjUQOHuxAgE4i5d44jOh2TIiRjJp1cjH1LbCgdbWGTmTONBMlNZdPPJ+otiyaImQyWKHEvd9eLmDbpEr3kpHaq9e+LLZMuzhm6tZW9ptSxNeOvu2mlQlvPGMs8YH05H6YwZHuiORCKBdV21cDqad5F8wcslXLojHk9SYYFpckA5BTvQEaweCB1x7kdIhv3kTbZWwF8trSpXBBNwqD3CIlBrrmUe408a3WNU7gQHxJWIBBEx9IrNwPFVqdMCGmL1Wl3LSTVchmCO2+BQrJ9GQCUetGtWz4GiJ0SNsKh3sG015nI3xfGa0wLU62BLkk2r1MKddTJk0j+36giW80uXUCLwS3ZShMBC2ajuM4w2R9cMkXt1zlW4JrcEJrVZjg5muJO3EtgXVbtNm1G+gHafy7ysjwYGKJ+JjfKAys7spm+9j//S8jvrN+ltGUk1LSWovnBlxNzpq37hEs8XPd1kRYIImQ2GsPsnuLrvd2WCujEKIkF2T2TEbZhMRYPj9YWhOftDYN0pgfUxof498smTr9fOrcu1Zt1pI0l6/5TW0z4S5RTZncBi0k1ywQnbjtlXxL/PvLKMQoSR8bKFXyzGdcVd8xC1X+QW408VVIh05MHEdVaxufNq/SbPE2tzIfv/LYheeATETMNnlj5jjErU1os8Unqqct8ZnzQ1gmEcngt5d7N8R/iIx1lDnVlQW1Ocmsa8Fdt65XeMfPNPEXQmvPaXxAY+lzps1fDNjEICOBHa21pM1kfm+C4fmcCSUJ1GvPEl/KwEMSCZnfa7MnIzfT0dqybS5rEqVMz/43Zfd82xB/z4MJ2QkB85ahx4vXrfUWG366AkH8p5uS+whU3gprNXd5U9TN9X0kec5WgvjPOS93kAq099KmvHYEexlpvtW846WY+McbWowoEOgjEMTvYxM5B0Yg4upEXJ2Iq3PgBR5DCwQUAmHqKDji5lUQCOK/ykzHOBUCQXwFR9y8CgJB/FeZ6RinQiCIr+CIm1dBYEh8e+ryVUCJcR4fgacmPpxCbB02xj+r944R1+c2rgzfo+thr1/3LwsenyOHHOH9iW+cV25BDQhoDk3hmfIuCfGgVS+eDsvTObqb891+uWIkjoDA/oifUR84VJTz5FlzL500DOIfgb+bx6CIX2x6cv6mP8RsvKJUGeWxhX89nOrjVbkYlreB+APKpm07ipHm9Z0q5InEhbPlQXwL90vdM/GB0DV0CHtICXLmMorIXkSFjqkD7dX2IdbOKY08r0bEhzzjKWW0/NCbKIj/UkS3g0Xig3+tIrUNG2JrlnsMBCX9cF3ib4ulMyI+mDKS+Lh5lbFxBuRu69cBQr92Uy37qmUjtU8EgPie5naJj0Q35sxpifgbY+mMiN9ofDcsxsDcGSyKUb/7nOaQ2iKwgvhIemH6sLkySXxZzAri3Y8IaG18KGu1NN2bL0O5syC+B/nLPJs3ddy3wjpTx5pSSyh3id981XHMHGq8ENxGSAviEzyvekXi0xeZuvnkrzes4TtxdsyXHRt2kICFze26WDou8b3v+D1yl87B3GkCv4bGp6l5ySsTn80W8RmykJWJn4MeX9NZ2vf0ydPYMLxoTqcks/hLEbUh23bg75kv1oHamj22KTd/kfhkJonr2qgFVpC4fxoEBPGfRqYQJBB4OAJB/IdDHB08IwJB/GeclZDp4QgE8R8OcXTwjAgE8Z9xVkKmhyMQcXUirk7E1Xn4MosOAoEnQSBMnSeZiBDjYxEI4n8s3tHbkyAQxH+SiQgxPhaBIP7H4h29PQkCQfwnmYgQ42MR2CHxPb+AjwVtP71JH+T9SL1dUjiePg4/A60/EfE73l10kjNfy1HPX0X8+bg8npNLPWk6cmHEI9TmT5nWuuKkaP6j1QunRUs9UQbacZxy7J8kHYZYGXi1CcZWmW8Z7/q6gL03RiFcSmmO+K4frW5o9d1Sm0v5qzu8c4XBseYx8evfxrUSVbLoMn3C2hbkfav9+u20ZF5TVvZK6d5YKD9fe2V6z2fq0p9XtUfXZd2cDuJbRGbvNxH/R/rjz7/SJ+dv9NJfZf/tz5/pi6vxl7WYEr047GiNuYbMa8qqfvGG6t8y3i11c/fF/0IGHXAErMQ3TibkQCKdSk5odkgXwiafKmJnJZ8cVnL98zVdLyK2jtNmqTrQ+KVN4cRCfShHF8ov7WB/9EwCIfNRvneZ30tvJP531yleukKu0b494Uib6sVCZPzeVFvTZ1vWC/DFfd0y3g1189C472ac9QES34YXyXZ0dUNMHRJmwslFQB5akvuFlJlQ8mHuv9MmizbId4mv+kA3SeeZlBcWihhnWrF/2Er85PsHVy3VEmtmIhk3TJT2hH2fH/fbWdNnW3ZI/JvGux6rMvzR3CA+HeJjLl0GJKQicEXiCJID8SW5sMZSm4N8l/hGm9syuVf9bFusHx7vCFwnT5HO5ivN1hIL6pqN7WdtxrBcJeETxm+ntiu/hqwpq/uGu9vHi2+rlViV3hWennTCxq9mgnEIz/W6JESiZ80q/1nii3sWo9smlhjkawJbQkN9WwaGISK3GdNOyX9yMGDBMWEnROY7eYoI5itKyWPt3CO+Nltkd216RHyvnTV9tmXb/u3bRddZN951dYssa4hPwhfCFBILLe2S0DMLOhr/iYnviUZYDK8Oubm8k6eJjxuwssnVE0tfJVrt6xGWezQJJD4vJsi2MtRKVgZL3FrSk0/mUtr2VR3+bV/2vu17Td3S/xbil4o2ho5HfFsGKqbrWdvzZSF57PLaJNTydZBvtbm9h+pCu2O7upzd18jOJ9IOubmWk2eJQHbxl68/zFeeZSJwP4PEh9r4jhx3HS8ReQKrIoqDvxURbPxMMklOSzqX5LiBFPUKsdSGEs0QUYYFcNvk3A8gfo6Wck4na9bksZv9gpCqJkfgOnkNEWjTl3+IUp/e7kP8tr9Wk9bBrOmzLUuLePyWwrfQpvHO181j8sZexwop/pzJpEVb3XJV5nMekpftY/psyQUGxKfNZqe/x2t8AKDubQafPC1q+d4hNxdz8rzJgGc2yltLLCrHf7klk2fpl9tJGUDmXp+eedWWnSM+EXJ2vLpvwkD/MOXIQt/xjZnHc4MJJr7NiPu9I+CTYu+jWpZ/btxB/GUkd1uiaMkFzbfbwfUEL286/bbwigbxPVQO8wy0nzYPDjM4ZyCwF5B7DadQeRTE7yETzw+NQBD/0NMbg+shEHF1Iq5OxNXprY54HggcDYEwdY42ozGeKQSC+FMwRaGjIRDEP9qMxnimEAjiT8EUhY6GQBD/aDMa45lC4EOIr48Dz8jlnfWfqfeKZeLX2S2z/sHE73hs4QnNcsqznOz8VcQXx1/pBKS90hHi7unHfHJy5BYIRM2nK+VP63T6cNUJTDqCK87jQDveWZX28Naash65qsy3jHd93dnYOZ7M9OyDiU/d4tWe+zfZv/zWITfL5ORVImhScx0iKi6mlvgeYWVtm27Ppqwh85qytud8f/t44Xi1xEH202//9rdcEF8ibdMOubmIk0dE2hIPhuq2oT+4xzZRPJO0xuy38yiNf1usoC1YZSCKhxm9fVtkFp9o4hcNLBzHjSdSsdUvb+i51HfckE4r2bOra+MPNL6tM+xbym1kLgjI/GxWeWU8qBxyczEnj0lHrnJ/c2lIcJ01JDRtiFvub+EZZK/psy07dDa5Zbwb6ubxeGMXMCwmmfgzMWaY0Oxh1fqtQpnqqM4eTh7Z1hI/k9b0XfcFeaytPDPj6qLERHVKOHl1MnCvYDRS1VItsWpdp6/Oow/1q0WCSrOkynzLeNfXLXA4+Hdgch8j8YEwzCkqaohJWpey87U8Y1K3xGvLiNqmfZFj2rX9QEndt/dsblyyX5UegevkVSI4rolKs/WIX2PcwCZXmzFKNvLZNYsLZLDt1PuWuDXPbqxlWd033N0+XtzTWCwXsCq9qzKedONnQHzrOyu/sghn7EXidxzIPYIWsR5N/MlxdSGyEyILOnmKCBE7R0Rz7i102szr/IIjf6nSeTwF9yR+o/G5F0jslfhL4zLDrLcOuTnTydPEj9g59Y3RkvcWrMoc3IX4jm3MEywSi8TvtPPLNH5HHjGkcdIhN1dw8uxk0oYwYucsE38NVmUOHPx5biYSZnNrQudlU4Ttdz9UiCV1uT/VzS3cd76kPNrUSRE7p3JggnxcuC1LxKxa3PuyghvV/DuF2nu07TVKgvYsE3WzmG19Fn4qwcTPpfkLDNn4gvQ5v5DY2A2W+IkiDmMbOTpxade0VaT7AOLPjKvI4v1vpFWcPG8y4NlsLBlno8m2riPgpAxQc4Z81Edbdo74RMjZ8ZKND/3OYpVLe1+0SPqZqyL+TIUo80wIOAR9JvEeJsvt4w7iP2xyPqbhoiVHb4WPEeNjeylvOv22WCtAEH8tYk9XHrRfxM5ZNzFB/HV4RemDIBDEP8hExjDWIRBxdSKuTsTVWbdmonQgsF8EwtTZ79yF5DcgEMS/Abyoul8E/g+mOKfRcEbs8AAAAABJRU5ErkJggg==;" vertex="1" parent="1">
          <mxGeometry x="339" y="260" width="150.24" height="170" as="geometry" />
        </mxCell>
        <mxCell id="egsPrMgl1LdYm7Axs7Or-92" value="" style="shape=image;verticalLabelPosition=bottom;labelBackgroundColor=#ffffff;verticalAlign=top;aspect=fixed;imageAspect=0;image=data:image/png,iVBORw0KGgoAAAANSUhEUgAAAJoAAABMCAYAAACVmK4lAAALlUlEQVR4Ae1cva5bNwz2c3nOs7h7niJAFz9EhjyBl67JXKDIEMBbtgJdO6uQKJIfKer8Xfu2t5cBgiPrUCT18TukfK7kU8l/icArIHB6BRtpIhEoSbQkwasgkER7FZjTSBItOfAqCIxEu1/L+XQqp/b/Um6PckP0nsv1/iilrOdermf2eXI9X8vDzbL5vK4iMBDtfj13klHAzgdYcbv0YF+Apkm01WD8nwUc0TgzXMr1eiHCHcgEIdFeEcV/2/4rTvXNmLJE46zTyHUrl1Y+41J3v16gxJ7L5VYLExPVla+a2Vj3yeq73y7lbMreuVyuNyhzrPNSbvdbuYDs+RKXwxnRZv2SxVsGtvauF83wkT2Lw6mcL+j7m+HB0x01RGPAuVxyYPgze8NytI5jUlUCcZC4D0poQLRYD4xpBic6eR2J5bk7yH6f/L1bz9InXHuqfhLXz3Z+3S/I8GKHfeEryDBm7/0KRAsyGAfGAMdypyIEvN/K9ayZSgKAgR6IFuipOVHWiKwPAn+uWa2G7F7EhvGNwin30H67pTblFs9RyIf2rt1e4Ncwn+oW62ff3zu9dP5KNAYcAydgnooERvowK6jC2goDLeN6ENieBJh1cLDYpgZefCAj0zVkaL+rFyJ3ZSwrDw2Uf2OvOL/Ef5e9e1azY3lu7/cqRGPAw3JRwWPkBOC3STS7VuRXOZiBJsROor3oKelE06d1SjTOPJKZfOm8yPsxIS2Ts7oo43pQ5TPoMaWTiTwJPBMeM3CHIrQvMKk+mavRAffPXDrv5SYlvfsl/iNJxUg2HAJEtIWgKUG4lEFp5MVvuyrgUp74fiVcEBghBMvBdbWULfgsepHoOHEe2+1ZMSAa+COkBGGxM8jxQ4JG33e7EY0B0+AiKAC8gFwX42f7esO82L0X81qg3guI1hb15jXJqZzO/KqEfVD7Yr7eYrKYbERjeD5S7lmVXDGDe1KAvat/neJfXXgceL3mdYrhd9uQNdr7QkDJNJJR7xlivy+AHj7b90k0ya66HFBkk2iKxeNa75Josoasi/0ByyTaAMkDOt4l0R6AW6rYiUASbSdgKX4MgZN8bR++ovM3qLwmRg/gwDF+5qhEYB8CWTr34ZXSBxFIoh0ELoftQyCJtg+vlD6IQBLtIHA5bB8CSbR9eKX0QQSSaAeBy2H7EPjvEK3txtCtRnUa8qci944v3mXiJv7Hj/Lh4+/ly5/Q3/q+lg8ff5Rv0E3Nv8qnj1/LL7/9XUr5u3z5tcot/P/8Vxv287ffY7lff5af3safP8svg07ryxZ9sYybq7eNO58NnufhQE28+0V3vGzC39lXogWBdrLP/RjYJ6K5LTf8B/Fge5BxMCCaCVAnio5BomlvawW6WIJ0WrLwPbx++0yk/fQH9pbSxgMpt+iLZKjva/H60ZoQyBCtv4wFPEVOtq/o339PIIe619pvj2h1Rp1si09WQA4O0JeWhXwGeB7RyK63F4eGfRwzrsrHMuT/h+EB0nEjgSqUfDJMd7J4Oa0s7qFX1autRjRRDEyvQaT+UXnr78yu7SqrztQnZBwjGxXZhn8ytma0PqWZbzLjBaJ949IImaSUZxGtl+EFAojPpWe4sLSr1BLRqPSrLLYIMzj/0W5qSeQEZuRaXGpM7bIG9W5pL2e0njnYgabQ9RmnSIB+BwOINJbAnopBhohoJzOO0ynRPSuvd0spi0Tj+1hqnkS0vi5bIgD6HZMIJWIyUmlezppRrPQshGKpcpd+iFyznfVk+6dlovHRM2CaD35zCglTbZvsRE8MqCDvjIwfQyLelpmWH29uMpEs8D6IFBxeX72EaP5LA9jtRMO1E/kBYyCzDvfalwfQJ1kPxleZDRlTCMRVBa8QoEgObnukN31eIRp/8+NS2DMRWG1OwedmFbNeb8c7IPQpsuQk35eI9uKMVk2YbPMSojFZA8yNjfF+I/tAtAV9QjSVYXIimUdLk0NFwxkNkLvc9IxutByKjEz6VolW+nnGtvBGAnWFW4nmuTj4E2SoJaLRU8cPwKBtvXT2IRSkmjGeRLS+9ptlnEcQrU7F6wkQUdKsBEMyWpPTNdx4viKyEvdtIFpneN32XM82ujLZnHJ9NjuRo4vfEKtve4jWCb+oc22NJngQwT58/gHv0eQmNQJdLEFE1ezC/XhVMmMvtT1BtutzNpuPuOYcbVkCjfe5Z5BrsaHXICscZRXDVYkWZCuRBkM+uINTfKIbPArLXNWJBN1KNC7FOFYchUZAjmkQe5DqC9pw0R7oYktTnSzQrvoC2Ja33v/C0kmmRl3GBXxhC7HxMvXzGFPoO1hClWho4OS/ZfALO1hTdQ+bU/WnmuQkdz2bOf6clLlfF6FeZkq0/kIRFq4rOJFnATmWSNEyy8dJRgh0cYBIp1uY18U5kIdl6Zuwk3VyW/TN5kH99ouD2Mb4rgAYEY2XUG2tvTIebXLbEI07x2vwOqILMdHGMdmTCCgC24i2UFaTaApmtuYIbCIapdL4G14SbQ5u3lEENhFNxbOVCBxDIIl2DLcctROB0/fv30v+TwyezYHMaDufzBQ/hkAS7RhuOWonAkm0nYCl+DEEkmjHcMtROxFIou0ELMWPIZBEO4ZbjtqJQBJtJ2BvW5y2RNkdJC+dEe0aCXe9gOo3SzS/jwvmpOcyh+3Ns+06NDreOTHfDcE7dPH8JwI+22WxeBCGD85MdpLs9hGAaWPNbpG+Fw/OmkYkHGx6XNvuFrc/DuzW5pslGm+5iYBhAgz3OiCf6hlLD1awRboCxCB7XfG2Ivt009goAGu7eX+UR/hoY21940PSOK9oTjQHfNh4oygdoCYb65ny7RJtYYv0LMANyEqwyRMYjwuAbeMne9cgurG+KjAn2sN8BD9as51dQMJ4AX+GYu5nNC/xO1Bbu4RovAvDbFD0mxNx8xxvRHSb4Bb1wE7dYeNj9QbvR5sj3SToCfQZo5fHIWPhUxcHOgJwJEXXb0qQc6x/jPXVm7F97qcsE8vEOmNZ9CoehxIB0YITXG1E8KCt6bdEq8EV4ox7/SuJzFbuYJ9aI1qgx+7MHHUTwXEr0nyzpcATTHitbPIJ8EZSR5YILCIzZgIKalR6xa/eiPTRrQkxXKY97qP3ZNvhlWE50vzBuXe9EQFnsn2IJZqQjO420gRZTacxOX7nxkR6bB8Rz5kPD6yo7doas1cLriNQJEegWhCJGG6r9SQz4qLf+qSfQn2w8LY6xrkc91F9oFag24vwUgSxm5EnIlrUBzZ2Eo3PDrh9/MAQSyCytNrHB064HJvreE4B/O+LdS6fBKgNoJYEXPhymUJZn4GYKNG4h2e0MFBj5tvmIyJU2+tEGzN3fAi7aY58jfrAjR1Ei0rZgzJaUILBx+UmTrC1bZaqg5kw+BpC20xSltPPdexYvnrQ8MmfeOhJoWIzArlsKtlPfYp0jj6qJWot+xySrA5EbFFllOlmsn3cdqKFZHgQ0fCQMk5oU1uf1hhwvT+oa4Dpt8coiMO6BYhrM92g3WVbvO+J9ngf0Vptx9j0/sk7uyjrV11znMaHnP3YTrTgvGYriWbh38//7V6j8U8vuDJZv4U6Xew4XmnilA2wFDYZRyYcx0ByGQwB5LJjMlgnRhCgGlD2IdZXPXBEe4qPdqaRL4zb0gMzZLueuXiObCXSz/fqdQfR9HfJ5Hc0+LcZXrpG6x6ZVyuVwBtIRkMpcNEvORJQWnpw8rWN92dgUf/4tHKgtAwryarumT5PNPTB+/dSH0XfUO4Ys6hc27mSfyrnSSY+modRLLeGEM1256f/HwIuiz50guu6k2gPBfy/raxl2IWsc9j7li3nVaPqTaIdRvctDqTMs7Qm2z8rWq9G5RR1JdEQjWw/DYEk2tOgTcWIQJ7rzHOtr3KuNzMaPnbZfhoCSbSnQZuKEYEkGqKR7achkER7GrSpGBFIoiEa2X4aAkm0p0GbihGBfwAptmcPm+kjUwAAAABJRU5ErkJggg==;" vertex="1" parent="1">
          <mxGeometry x="40" y="286.44" width="113.47" height="56" as="geometry" />
        </mxCell>
      </root>
    </mxGraphModel>
  </diagram>
</mxfile>
